<?xml version="1.0" ?><!DOCTYPE svg  PUBLIC '-//W3C//DTD SVG 1.1//EN'  'http://www.w3.org/Graphics/SVG/1.1/DTD/svg11.dtd'><svg xmlns="http://www.w3.org/2000/svg" width="768.0" height="238.0" viewBox="238.0 51.0 768.0 238.0"><rect x="238.0" y="51.0" width="768.0" height="238.0" style="fill:#1e1e1e;fill-opacity:1.0" /><polygon points="405.0,134.0 405.0,119.0 405.0,119.0 405.0431573277362,117.90157265981017 405.1723632316681,116.80991748943677 405.3868211144325,115.73176490601733 405.68520877186785,114.67376207875074 406.065686544842,113.64243194688875 406.52590866136285,112.64413300364635 407.0630376990427,111.68502009397672 407.6737620787507,110.77100646790538 408.35431648159954,109.90772732337743 409.1005050633883,109.10050506338834 409.9077273233774,108.35431648159957 410.77100646790535,107.67376207875074 411.68502009397673,107.06303769904271 412.64413300364635,106.52590866136285 413.64243194688873,106.06568654484198 414.6737620787507,105.68520877186785 415.7317649060173,105.38682111443252 416.80991748943677,105.17236323166807 417.90157265981014,105.04315732773621 419.0,105.0 471.0,105.0 471.0,105.0 472.09842734018986,105.04315732773621 473.19008251056323,105.17236323166807 474.26823509398264,105.38682111443252 475.3262379212493,105.68520877186785 476.35756805311127,106.06568654484198 477.35586699635365,106.52590866136285 478.31497990602327,107.06303769904271 479.2289935320946,107.67376207875074 480.0922726766226,108.35431648159957 480.8994949366117,109.10050506338834 481.6456835184004,109.90772732337742 482.3262379212493,110.77100646790538 482.9369623009573,111.68502009397672 483.47409133863715,112.64413300364635 483.934313455158,113.64243194688873 484.31479122813215,114.67376207875073 484.6131788855675,115.73176490601733 484.8276367683319,116.80991748943677 484.9568426722638,117.90157265981016 485.0,119.0 485.0,134.0" stroke="#858585" fill="#104010" stroke-width="3.0" fill-rule="evenodd" stroke-linejoin="round"/><polygon points="405.0,134.0 485.0,134.0 485.0,178.0 485.0,178.0 484.9568426722638,179.09842734018983 484.8276367683319,180.19008251056323 484.6131788855675,181.26823509398267 484.31479122813215,182.32623792124926 483.934313455158,183.35756805311127 483.47409133863715,184.35586699635365 482.9369623009573,185.3149799060233 482.3262379212493,186.22899353209462 481.64568351840046,187.09227267662257 480.8994949366117,187.89949493661166 480.0922726766226,188.64568351840043 479.22899353209465,189.32623792124926 478.31497990602327,189.9369623009573 477.35586699635365,190.47409133863715 476.35756805311127,190.93431345515802 475.3262379212493,191.31479122813215 474.2682350939827,191.61317888556746 473.19008251056323,191.82763676833193 472.09842734018986,191.9568426722638 471.0,192.0 419.0,192.0 419.0,192.0 417.9015726598102,191.9568426722638 416.80991748943677,191.82763676833193 415.7317649060173,191.61317888556746 414.6737620787507,191.31479122813215 413.64243194688873,190.93431345515802 412.64413300364635,190.47409133863715 411.68502009397673,189.9369623009573 410.77100646790535,189.32623792124926 409.90772732337746,188.64568351840043 409.1005050633883,187.89949493661166 408.35431648159954,187.09227267662257 407.6737620787507,186.22899353209462 407.0630376990427,185.3149799060233 406.52590866136285,184.35586699635365 406.065686544842,183.35756805311127 405.68520877186785,182.32623792124926 405.3868211144325,181.26823509398267 405.1723632316681,180.19008251056323 405.0431573277362,179.09842734018983 405.0,134.0" stroke="#858585" fill="#252525" stroke-width="3.0" fill-rule="evenodd" stroke-linejoin="round"/><text x="445.0" y="128" fill="#d0d0d0" stroke-width="0.0" text-anchor="middle" font-family="DejaVu Sans Mono" font-size="18.0pt" font-weight="bold">xor</text><polygon points="639.0,218.0 639.0,203.0 639.0,203.0 639.0431573277363,201.90157265981017 639.1723632316681,200.80991748943677 639.3868211144326,199.73176490601733 639.6852087718678,198.67376207875074 640.065686544842,197.64243194688873 640.5259086613629,196.64413300364635 641.0630376990428,195.68502009397673 641.6737620787508,194.77100646790538 642.3543164815995,193.90772732337743 643.1005050633884,193.10050506338834 643.9077273233775,192.35431648159957 644.7710064679054,191.67376207875074 645.6850200939767,191.0630376990427 646.6441330036463,190.52590866136285 647.6424319468888,190.06568654484198 648.6737620787508,189.68520877186785 649.7317649060174,189.38682111443254 650.8099174894368,189.17236323166807 651.9015726598102,189.0431573277362 653.0,189.0 705.0,189.0 705.0,189.0 706.0984273401898,189.0431573277362 707.1900825105632,189.17236323166807 708.2682350939826,189.38682111443254 709.3262379212492,189.68520877186785 710.3575680531112,190.06568654484198 711.3558669963536,190.52590866136285 712.3149799060233,191.0630376990427 713.2289935320946,191.67376207875074 714.0922726766225,192.35431648159957 714.8994949366116,193.10050506338834 715.6456835184005,193.90772732337743 716.3262379212492,194.77100646790538 716.9369623009572,195.68502009397673 717.4740913386371,196.64413300364635 717.934313455158,197.64243194688873 718.3147912281321,198.67376207875074 718.6131788855674,199.73176490601733 718.8276367683319,200.80991748943677 718.9568426722637,201.90157265981017 719.0,203.0 719.0,218.0" stroke="#858585" fill="#101040" stroke-width="3.0" fill-rule="evenodd" stroke-linejoin="round"/><polygon points="639.0,218.0 719.0,218.0 719.0,262.0 719.0,262.0 718.9568426722637,263.0984273401898 718.8276367683319,264.19008251056323 718.6131788855674,265.2682350939827 718.3147912281321,266.3262379212493 717.934313455158,267.35756805311127 717.4740913386371,268.35586699635365 716.9369623009572,269.31497990602327 716.3262379212492,270.22899353209465 715.6456835184005,271.09227267662254 714.8994949366116,271.8994949366117 714.0922726766225,272.64568351840046 713.2289935320946,273.3262379212493 712.3149799060233,273.9369623009573 711.3558669963537,274.47409133863715 710.3575680531112,274.934313455158 709.3262379212492,275.31479122813215 708.2682350939826,275.6131788855675 707.1900825105632,275.8276367683319 706.0984273401898,275.9568426722638 705.0,276.0 653.0,276.0 653.0,276.0 651.9015726598102,275.9568426722638 650.8099174894368,275.8276367683319 649.7317649060174,275.6131788855675 648.6737620787508,275.31479122813215 647.6424319468888,274.934313455158 646.6441330036464,274.47409133863715 645.6850200939767,273.9369623009573 644.7710064679054,273.3262379212493 643.9077273233775,272.64568351840046 643.1005050633884,271.8994949366117 642.3543164815995,271.0922726766226 641.6737620787508,270.22899353209465 641.0630376990428,269.31497990602327 640.5259086613629,268.35586699635365 640.065686544842,267.35756805311127 639.6852087718679,266.3262379212493 639.3868211144326,265.2682350939827 639.1723632316681,264.19008251056323 639.0431573277363,263.09842734018986 639.0,218.0" stroke="#858585" fill="#252525" stroke-width="3.0" fill-rule="evenodd" stroke-linejoin="round"/><text x="679.0" y="212" fill="#d0d0d0" stroke-width="0.0" text-anchor="middle" font-family="DejaVu Sans Mono" font-size="18.0pt" font-weight="bold">xor</text><polygon points="393.0,147.0 405.0,153.0 393.0,159.0" fill="#858585" fill-rule="evenodd" stroke-linejoin="round"/><text x="407.0" y="159" fill="#d0d0d0" stroke-width="0.0" font-family="DejaVu Sans Mono" font-size="12.0pt">a: </text><text x="437.0" y="159" fill="#e00080" stroke-width="0.0" font-family="DejaVu Sans Mono" font-size="12.0pt">int</text><polygon points="393.0,166.0 405.0,172.0 393.0,178.0" fill="#858585" fill-rule="evenodd" stroke-linejoin="round"/><text x="407.0" y="178" fill="#d0d0d0" stroke-width="0.0" font-family="DejaVu Sans Mono" font-size="12.0pt">b: </text><text x="437.0" y="178" fill="#e00080" stroke-width="0.0" font-family="DejaVu Sans Mono" font-size="12.0pt">int</text><polygon points="473.0,157.0 485.0,163.0 473.0,169.0" fill="#858585" fill-rule="evenodd" stroke-linejoin="round"/><text x="488.0" y="159" fill="#d0d0d0" stroke-width="0.0" font-family="DejaVu Sans Mono" font-size="12.0pt"></text><text x="488.0" y="159" fill="#e00080" stroke-width="0.0" font-family="DejaVu Sans Mono" font-size="12.0pt">int</text><polygon points="627.0,231.0 639.0,237.0 627.0,243.0" fill="#858585" fill-rule="evenodd" stroke-linejoin="round"/><text x="641.0" y="243" fill="#d0d0d0" stroke-width="0.0" font-family="DejaVu Sans Mono" font-size="12.0pt">a: </text><text x="671.0" y="243" fill="#e00080" stroke-width="0.0" font-family="DejaVu Sans Mono" font-size="12.0pt">int</text><polygon points="627.0,250.0 639.0,256.0 627.0,262.0" fill="#858585" fill-rule="evenodd" stroke-linejoin="round"/><text x="641.0" y="262" fill="#d0d0d0" stroke-width="0.0" font-family="DejaVu Sans Mono" font-size="12.0pt">b: </text><text x="671.0" y="262" fill="#e00080" stroke-width="0.0" font-family="DejaVu Sans Mono" font-size="12.0pt">int</text><polygon points="707.0,241.0 719.0,247.0 707.0,253.0" fill="#858585" fill-rule="evenodd" stroke-linejoin="round"/><text x="722.0" y="243" fill="#d0d0d0" stroke-width="0.0" font-family="DejaVu Sans Mono" font-size="12.0pt"></text><text x="722.0" y="243" fill="#e00080" stroke-width="0.0" font-family="DejaVu Sans Mono" font-size="12.0pt">int</text><circle cx="255.0" cy="256.0" r="6.0" stroke="#000" fill="#858585"/><text x="255.0" y="242" fill="#d0d0d0" stroke-width="0.0" font-family="DejaVu Sans Mono" font-size="12.0pt">key: </text><text x="305.0" y="242" fill="#e00080" stroke-width="0.0" font-family="DejaVu Sans Mono" font-size="12.0pt">int</text><circle cx="795.0" cy="247.0" r="6.0" stroke="#000" fill="#858585"/><text x="795.0" y="233" fill="#d0d0d0" stroke-width="0.0" font-family="DejaVu Sans Mono" font-size="12.0pt">deciphered_text: </text><text x="965.0" y="233" fill="#e00080" stroke-width="0.0" font-family="DejaVu Sans Mono" font-size="12.0pt">int</text><circle cx="255.0" cy="90.0" r="6.0" stroke="#000" fill="#858585"/><text x="255.0" y="76" fill="#d0d0d0" stroke-width="0.0" font-family="DejaVu Sans Mono" font-size="12.0pt">plain_text: </text><text x="375.0" y="76" fill="#e00080" stroke-width="0.0" font-family="DejaVu Sans Mono" font-size="12.0pt">int</text><circle cx="558.0" cy="163.0" r="6.0" stroke="#000" fill="#858585"/><text x="558.0" y="149" fill="#d0d0d0" stroke-width="0.0" font-family="DejaVu Sans Mono" font-size="12.0pt">cipher_text</text><path d="M405.0,153.0 Q367.0,153.0 348.5,137.0 T311.0,105.5 T255.0,90.0" stroke="#858585" fill="none"/><path d="M405.0,172.0 Q367.0,172.0 348.5,193.0 T311.0,235.0 T255.0,256.0" stroke="#858585" fill="none"/><path d="M485.0,163.0 Q503.0,163.0 512.0,163.0 T530.0,163.0 T558.0,163.0" stroke="#858585" fill="none"/><path d="M639.0,237.0 Q618.0,237.0 608.0,218.5 T588.0,181.5 T558.0,163.0" stroke="#858585" fill="none"/><path d="M639.0,256.0 Q543.0,256.0 495.0,256.0 T399.0,256.0 T255.0,256.0" stroke="#858585" fill="none"/><path d="M719.0,247.0 Q719.0,247.0 719.0,247.0 T719.0,247.0 T719.0,247.0" stroke="#858585" fill="none"/><path d="M719.0,247.0 Q738.0,247.0 747.5,247.0 T766.5,247.0 T795.0,247.0" stroke="#858585" fill="none"/></svg>