<?xml version="1.0" ?><!DOCTYPE svg  PUBLIC '-//W3C//DTD SVG 1.1//EN'  'http://www.w3.org/Graphics/SVG/1.1/DTD/svg11.dtd'><svg xmlns="http://www.w3.org/2000/svg" width="251.0" height="132.0" viewBox="77.0 87.0 251.0 132.0"><rect x="77.0" y="87.0" width="251.0" height="132.0" style="fill:#1e1e1e;fill-opacity:1.0" /><polygon points="100.0,129.0 100.0,114.0 100.0,114.0 100.04315732773621,112.90157265981017 100.17236323166807,111.80991748943677 100.38682111443252,110.73176490601733 100.68520877186785,109.67376207875074 101.06568654484198,108.64243194688875 101.52590866136285,107.64413300364635 102.06303769904271,106.68502009397672 102.67376207875074,105.77100646790538 103.35431648159957,104.90772732337743 104.10050506338834,104.10050506338834 104.90772732337743,103.35431648159957 105.77100646790538,102.67376207875074 106.68502009397672,102.06303769904271 107.64413300364635,101.52590866136285 108.64243194688873,101.06568654484198 109.67376207875074,100.68520877186785 110.73176490601733,100.38682111443252 111.80991748943677,100.17236323166807 112.90157265981016,100.04315732773621 114.0,100.0 260.0,100.0 260.0,100.0 261.09842734018986,100.04315732773621 262.19008251056323,100.17236323166807 263.26823509398264,100.38682111443252 264.3262379212493,100.68520877186785 265.35756805311127,101.06568654484198 266.35586699635365,101.52590866136285 267.31497990602327,102.06303769904271 268.2289935320946,102.67376207875074 269.0922726766226,103.35431648159957 269.8994949366117,104.10050506338834 270.6456835184004,104.90772732337742 271.3262379212493,105.77100646790538 271.9369623009573,106.68502009397672 272.47409133863715,107.64413300364635 272.934313455158,108.64243194688873 273.31479122813215,109.67376207875073 273.6131788855675,110.73176490601733 273.8276367683319,111.80991748943677 273.9568426722638,112.90157265981016 274.0,114.0 274.0,129.0" stroke="#858585" fill="#444" stroke-width="3.0" fill-rule="evenodd" stroke-linejoin="round"/><polygon points="100.0,129.0 274.0,129.0 274.0,192.0 274.0,192.0 273.9568426722638,193.09842734018983 273.8276367683319,194.19008251056323 273.6131788855675,195.26823509398267 273.31479122813215,196.32623792124926 272.934313455158,197.35756805311127 272.47409133863715,198.35586699635365 271.9369623009573,199.3149799060233 271.3262379212493,200.22899353209462 270.64568351840046,201.09227267662257 269.8994949366117,201.89949493661166 269.0922726766226,202.64568351840043 268.22899353209465,203.32623792124926 267.31497990602327,203.9369623009573 266.35586699635365,204.47409133863715 265.35756805311127,204.93431345515802 264.3262379212493,205.31479122813215 263.2682350939827,205.61317888556746 262.19008251056323,205.82763676833193 261.09842734018986,205.9568426722638 260.0,206.0 114.0,206.0 114.0,206.0 112.90157265981017,205.9568426722638 111.80991748943677,205.82763676833193 110.73176490601733,205.61317888556746 109.67376207875074,205.31479122813215 108.64243194688875,204.93431345515802 107.64413300364635,204.47409133863715 106.68502009397672,203.9369623009573 105.77100646790538,203.32623792124926 104.90772732337743,202.64568351840043 104.10050506338834,201.89949493661166 103.35431648159957,201.09227267662257 102.67376207875074,200.22899353209462 102.06303769904271,199.3149799060233 101.52590866136285,198.35586699635365 101.06568654484198,197.35756805311127 100.68520877186785,196.32623792124926 100.38682111443254,195.26823509398267 100.17236323166807,194.19008251056323 100.04315732773621,193.09842734018983 100.0,129.0" stroke="#858585" fill="#252525" stroke-width="3.0" fill-rule="evenodd" stroke-linejoin="round"/><text x="187.0" y="123" fill="#d0d0d0" stroke-width="0.0" text-anchor="middle" font-family="DejaVu Sans Mono" font-size="18.0pt" font-weight="bold">my_function</text><polygon points="262.0,161.0 274.0,167.0 262.0,173.0" fill="#858585" fill-rule="evenodd" stroke-linejoin="round"/><text x="277.0" y="163" fill="#d0d0d0" stroke-width="0.0" font-family="DejaVu Sans Mono" font-size="12.0pt"></text><text x="277.0" y="163" fill="#e00080" stroke-width="0.0" font-family="DejaVu Sans Mono" font-size="12.0pt">list</text><polygon points="88.0,142.0 100.0,148.0 88.0,154.0" fill="#858585" fill-rule="evenodd" stroke-linejoin="round"/><text x="102.0" y="154" fill="#d0d0d0" stroke-width="0.0" font-family="DejaVu Sans Mono" font-size="12.0pt">param1: </text><text x="182.0" y="154" fill="#e00080" stroke-width="0.0" font-family="DejaVu Sans Mono" font-size="12.0pt">int</text><polygon points="88.0,161.0 100.0,167.0 88.0,173.0" fill="#858585" fill-rule="evenodd" stroke-linejoin="round"/><text x="102.0" y="173" fill="#d0d0d0" stroke-width="0.0" font-family="DejaVu Sans Mono" font-size="12.0pt">param2: </text><text x="182.0" y="173" fill="#e00080" stroke-width="0.0" font-family="DejaVu Sans Mono" font-size="12.0pt">float</text><polygon points="88.0,180.0 100.0,186.0 88.0,192.0" fill="#858585" fill-rule="evenodd" stroke-linejoin="round"/><text x="102.0" y="192" fill="#d0d0d0" stroke-width="0.0" font-family="DejaVu Sans Mono" font-size="12.0pt">param3: </text><text x="182.0" y="192" fill="#e00080" stroke-width="0.0" font-family="DejaVu Sans Mono" font-size="12.0pt">str</text></svg>