<?xml version="1.0" ?><!DOCTYPE svg  PUBLIC '-//W3C//DTD SVG 1.1//EN'  'http://www.w3.org/Graphics/SVG/1.1/DTD/svg11.dtd'><svg xmlns="http://www.w3.org/2000/svg" width="245.0" height="113.0" viewBox="437.0 210.0 245.0 113.0"><rect x="437.0" y="210.0" width="245.0" height="113.0" style="fill:#1e1e1e;fill-opacity:0.0" /><polygon points="521.0,252.0 521.0,237.0 521.0,237.0 521.0431573277363,235.90157265981017 521.1723632316681,234.80991748943677 521.3868211144326,233.73176490601733 521.6852087718678,232.67376207875074 522.065686544842,231.64243194688873 522.5259086613629,230.64413300364635 523.0630376990428,229.68502009397673 523.6737620787508,228.77100646790538 524.3543164815995,227.90772732337743 525.1005050633884,227.10050506338834 525.9077273233775,226.35431648159957 526.7710064679054,225.67376207875074 527.6850200939767,225.0630376990427 528.6441330036463,224.52590866136285 529.6424319468888,224.06568654484198 530.6737620787508,223.68520877186785 531.7317649060174,223.38682111443254 532.8099174894368,223.17236323166807 533.9015726598102,223.0431573277362 535.0,223.0 567.0,223.0 567.0,223.0 568.0984273401898,223.0431573277362 569.1900825105632,223.17236323166807 570.2682350939826,223.38682111443254 571.3262379212492,223.68520877186785 572.3575680531112,224.06568654484198 573.3558669963536,224.52590866136285 574.3149799060233,225.0630376990427 575.2289935320946,225.67376207875074 576.0922726766225,226.35431648159957 576.8994949366116,227.10050506338834 577.6456835184005,227.90772732337743 578.3262379212492,228.77100646790538 578.9369623009572,229.68502009397673 579.4740913386371,230.64413300364635 579.934313455158,231.64243194688873 580.3147912281321,232.67376207875074 580.6131788855674,233.73176490601733 580.8276367683319,234.80991748943677 580.9568426722637,235.90157265981017 581.0,237.0 581.0,252.0" stroke="#858585" fill="#444" stroke-width="3.0" fill-rule="evenodd" stroke-linejoin="round"/><polygon points="521.0,252.0 581.0,252.0 581.0,296.0 581.0,296.0 580.9568426722637,297.0984273401898 580.8276367683319,298.19008251056323 580.6131788855674,299.2682350939827 580.3147912281321,300.3262379212493 579.934313455158,301.35756805311127 579.4740913386371,302.35586699635365 578.9369623009572,303.31497990602327 578.3262379212492,304.22899353209465 577.6456835184005,305.09227267662254 576.8994949366116,305.8994949366117 576.0922726766225,306.64568351840046 575.2289935320946,307.3262379212493 574.3149799060233,307.9369623009573 573.3558669963537,308.47409133863715 572.3575680531112,308.934313455158 571.3262379212492,309.31479122813215 570.2682350939826,309.6131788855675 569.1900825105632,309.8276367683319 568.0984273401898,309.9568426722638 567.0,310.0 535.0,310.0 535.0,310.0 533.9015726598102,309.9568426722638 532.8099174894368,309.8276367683319 531.7317649060174,309.6131788855675 530.6737620787508,309.31479122813215 529.6424319468888,308.934313455158 528.6441330036464,308.47409133863715 527.6850200939767,307.9369623009573 526.7710064679054,307.3262379212493 525.9077273233775,306.64568351840046 525.1005050633884,305.8994949366117 524.3543164815995,305.0922726766226 523.6737620787508,304.22899353209465 523.0630376990428,303.31497990602327 522.5259086613629,302.35586699635365 522.065686544842,301.35756805311127 521.6852087718679,300.3262379212493 521.3868211144326,299.2682350939827 521.1723632316681,298.19008251056323 521.0431573277363,297.09842734018986 521.0,252.0" stroke="#858585" fill="#252525" stroke-width="3.0" fill-rule="evenodd" stroke-linejoin="round"/><text x="551.0" y="246" fill="#d0d0d0" stroke-width="0.0" text-anchor="middle" font-family="DejaVu Sans Mono" font-size="18.0pt" font-weight="bold">fd</text><polygon points="569.0,275.0 581.0,281.0 569.0,287.0" fill="#858585" fill-rule="evenodd" stroke-linejoin="round"/><text x="584.0" y="277" fill="#d0d0d0" stroke-width="0.0" font-family="DejaVu Sans Mono" font-size="12.0pt"></text><polygon points="509.0,265.0 521.0,271.0 509.0,277.0" fill="#858585" fill-rule="evenodd" stroke-linejoin="round"/><text x="523.0" y="277" fill="#d0d0d0" stroke-width="0.0" font-family="DejaVu Sans Mono" font-size="12.0pt"> </text><polygon points="509.0,284.0 521.0,290.0 509.0,296.0" fill="#858585" fill-rule="evenodd" stroke-linejoin="round"/><text x="523.0" y="296" fill="#d0d0d0" stroke-width="0.0" font-family="DejaVu Sans Mono" font-size="12.0pt">  </text><circle cx="454.0" cy="271.0" r="6.0" stroke="#000" fill="#858585"/><text x="454.0" y="257" fill="#d0d0d0" stroke-width="0.0" font-family="DejaVu Sans Mono" font-size="12.0pt"> </text><circle cx="454.0" cy="290.0" r="6.0" stroke="#000" fill="#858585"/><text x="454.0" y="276" fill="#d0d0d0" stroke-width="0.0" font-family="DejaVu Sans Mono" font-size="12.0pt">  </text><circle cx="641.0" cy="281.0" r="6.0" stroke="#000" fill="#858585"/><text x="641.0" y="267" fill="#d0d0d0" stroke-width="0.0" font-family="DejaVu Sans Mono" font-size="12.0pt">   </text><path d="M581.0,281.0 Q596.0,281.0 603.5,281.0 T618.5,281.0 T641.0,281.0" stroke="#858585" fill="none"/><path d="M521.0,271.0 Q504.0,271.0 495.5,271.0 T478.5,271.0 T454.0,271.0" stroke="#858585" fill="none"/><path d="M521.0,290.0 Q504.0,290.0 495.5,290.0 T478.5,290.0 T454.0,290.0" stroke="#858585" fill="none"/></svg>