<?xml version="1.0" ?><!DOCTYPE svg  PUBLIC '-//W3C//DTD SVG 1.1//EN'  'http://www.w3.org/Graphics/SVG/1.1/DTD/svg11.dtd'><svg xmlns="http://www.w3.org/2000/svg" width="230.0" height="113.0" viewBox="428.0 274.0 230.0 113.0"><rect x="428.0" y="274.0" width="230.0" height="113.0" style="fill:white;fill-opacity:1.0" /><polygon points="506.0,316.0 506.0,301.0 506.0,301.0 506.0431573277362,299.9015726598102 506.1723632316681,298.80991748943677 506.3868211144325,297.7317649060173 506.68520877186785,296.6737620787507 507.065686544842,295.64243194688873 507.52590866136285,294.64413300364635 508.0630376990427,293.68502009397673 508.6737620787507,292.77100646790535 509.35431648159954,291.90772732337746 510.1005050633883,291.1005050633883 510.9077273233774,290.3543164815996 511.77100646790535,289.6737620787507 512.6850200939767,289.0630376990427 513.6441330036463,288.52590866136285 514.6424319468888,288.065686544842 515.6737620787508,287.68520877186785 516.7317649060174,287.3868211144325 517.8099174894368,287.1723632316681 518.9015726598102,287.0431573277362 520.0,287.0 552.0,287.0 552.0,287.0 553.0984273401898,287.0431573277362 554.1900825105632,287.1723632316681 555.2682350939826,287.3868211144325 556.3262379212492,287.68520877186785 557.3575680531112,288.065686544842 558.3558669963536,288.52590866136285 559.3149799060233,289.0630376990427 560.2289935320946,289.6737620787507 561.0922726766225,290.35431648159954 561.8994949366116,291.1005050633883 562.6456835184005,291.9077273233774 563.3262379212492,292.77100646790535 563.9369623009572,293.68502009397673 564.4740913386371,294.64413300364635 564.934313455158,295.64243194688873 565.3147912281321,296.6737620787507 565.6131788855674,297.7317649060173 565.8276367683319,298.80991748943677 565.9568426722637,299.90157265981014 566.0,301.0 566.0,316.0" stroke="#000" fill="#ddd" stroke-width="3.0" fill-rule="evenodd" stroke-linejoin="round"/><polygon points="506.0,316.0 566.0,316.0 566.0,360.0 566.0,360.0 565.9568426722637,361.0984273401898 565.8276367683319,362.19008251056323 565.6131788855674,363.2682350939827 565.3147912281321,364.3262379212493 564.934313455158,365.35756805311127 564.4740913386371,366.35586699635365 563.9369623009572,367.31497990602327 563.3262379212492,368.22899353209465 562.6456835184005,369.09227267662254 561.8994949366116,369.8994949366117 561.0922726766225,370.64568351840046 560.2289935320946,371.3262379212493 559.3149799060233,371.9369623009573 558.3558669963537,372.47409133863715 557.3575680531112,372.934313455158 556.3262379212492,373.31479122813215 555.2682350939826,373.6131788855675 554.1900825105632,373.8276367683319 553.0984273401898,373.9568426722638 552.0,374.0 520.0,374.0 520.0,374.0 518.9015726598102,373.9568426722638 517.8099174894368,373.8276367683319 516.7317649060174,373.6131788855675 515.6737620787508,373.31479122813215 514.6424319468888,372.934313455158 513.6441330036464,372.47409133863715 512.6850200939767,371.9369623009573 511.77100646790535,371.3262379212493 510.90772732337746,370.64568351840046 510.1005050633883,369.8994949366117 509.35431648159954,369.0922726766226 508.6737620787507,368.22899353209465 508.0630376990427,367.31497990602327 507.52590866136285,366.35586699635365 507.065686544842,365.35756805311127 506.68520877186785,364.3262379212493 506.3868211144325,363.2682350939827 506.1723632316681,362.19008251056323 506.0431573277362,361.09842734018986 506.0,316.0" stroke="#000" fill="#fff" stroke-width="3.0" fill-rule="evenodd" stroke-linejoin="round"/><text x="536.0" y="310" fill="#000" stroke-width="0.0" text-anchor="middle" font-family="DejaVu Sans Mono" font-size="18.0pt" font-weight="bold">fd</text><polygon points="494.0,329.0 506.0,335.0 494.0,341.0" fill="#000" fill-rule="evenodd" stroke-linejoin="round"/><text x="508.0" y="341" fill="#000" stroke-width="0.0" font-family="DejaVu Sans Mono" font-size="12.0pt"> </text><polygon points="494.0,348.0 506.0,354.0 494.0,360.0" fill="#000" fill-rule="evenodd" stroke-linejoin="round"/><text x="508.0" y="360" fill="#000" stroke-width="0.0" font-family="DejaVu Sans Mono" font-size="12.0pt">  </text><polygon points="554.0,339.0 566.0,345.0 554.0,351.0" fill="#000" fill-rule="evenodd" stroke-linejoin="round"/><text x="569.0" y="341" fill="#000" stroke-width="0.0" font-family="DejaVu Sans Mono" font-size="12.0pt"></text><circle cx="445.0" cy="335.0" r="6.0" stroke="#000" fill="#000"/><text x="445.0" y="321" fill="#000" stroke-width="0.0" font-family="DejaVu Sans Mono" font-size="12.0pt"> </text><circle cx="445.0" cy="354.0" r="6.0" stroke="#000" fill="#000"/><text x="445.0" y="340" fill="#000" stroke-width="0.0" font-family="DejaVu Sans Mono" font-size="12.0pt">  </text><circle cx="617.0" cy="345.0" r="6.0" stroke="#000" fill="#000"/><text x="617.0" y="331" fill="#000" stroke-width="0.0" font-family="DejaVu Sans Mono" font-size="12.0pt">   </text><path d="M506.0,335.0 Q490.0,335.0 482.5,335.0 T467.5,335.0 T445.0,335.0" stroke="#000" fill="none"/><path d="M506.0,354.0 Q490.0,354.0 482.5,354.0 T467.5,354.0 T445.0,354.0" stroke="#000" fill="none"/><path d="M566.0,345.0 Q578.0,345.0 584.5,345.0 T597.5,345.0 T617.0,345.0" stroke="#000" fill="none"/></svg>