<?xml version="1.0" ?><!DOCTYPE svg  PUBLIC '-//W3C//DTD SVG 1.1//EN'  'http://www.w3.org/Graphics/SVG/1.1/DTD/svg11.dtd'><svg xmlns="http://www.w3.org/2000/svg" width="1080.0" height="380.0" viewBox="61.0 203.0 1080.0 380.0"><rect x="61.0" y="203.0" width="1080.0" height="380.0" style="fill:#808080;fill-opacity:0.5" /><polygon points="187.0,265.0 187.0,250.0 187.0,250.0 187.0431573277362,248.90157265981017 187.17236323166807,247.80991748943677 187.38682111443254,246.73176490601733 187.68520877186785,245.67376207875074 188.06568654484198,244.64243194688873 188.52590866136285,243.64413300364635 189.0630376990427,242.68502009397673 189.67376207875074,241.77100646790538 190.35431648159957,240.90772732337743 191.10050506338834,240.10050506338834 191.90772732337743,239.35431648159957 192.77100646790538,238.67376207875074 193.68502009397673,238.0630376990427 194.64413300364635,237.52590866136285 195.64243194688873,237.06568654484198 196.67376207875074,236.68520877186785 197.73176490601733,236.38682111443254 198.80991748943677,236.17236323166807 199.90157265981017,236.0431573277362 201.0,236.0 571.0,236.0 571.0,236.0 572.0984273401898,236.0431573277362 573.1900825105632,236.17236323166807 574.2682350939826,236.38682111443254 575.3262379212492,236.68520877186785 576.3575680531112,237.06568654484198 577.3558669963536,237.52590866136285 578.3149799060233,238.0630376990427 579.2289935320946,238.67376207875074 580.0922726766225,239.35431648159957 580.8994949366116,240.10050506338834 581.6456835184005,240.90772732337743 582.3262379212492,241.77100646790538 582.9369623009572,242.68502009397673 583.4740913386371,243.64413300364635 583.934313455158,244.64243194688873 584.3147912281321,245.67376207875074 584.6131788855674,246.73176490601733 584.8276367683319,247.80991748943677 584.9568426722637,248.90157265981017 585.0,250.0 585.0,265.0" stroke="#000" fill="#40a040" stroke-width="3.0" fill-rule="evenodd" stroke-linejoin="round"/><polygon points="187.0,265.0 585.0,265.0 585.0,290.0 585.0,290.0 584.9568426722637,291.0984273401898 584.8276367683319,292.19008251056323 584.6131788855674,293.2682350939827 584.3147912281321,294.3262379212493 583.934313455158,295.35756805311127 583.4740913386371,296.35586699635365 582.9369623009572,297.31497990602327 582.3262379212492,298.22899353209465 581.6456835184005,299.09227267662254 580.8994949366116,299.8994949366117 580.0922726766225,300.64568351840046 579.2289935320946,301.3262379212493 578.3149799060233,301.9369623009573 577.3558669963537,302.47409133863715 576.3575680531112,302.934313455158 575.3262379212492,303.31479122813215 574.2682350939826,303.6131788855675 573.1900825105632,303.8276367683319 572.0984273401898,303.9568426722638 571.0,304.0 201.0,304.0 201.0,304.0 199.90157265981017,303.9568426722638 198.80991748943677,303.8276367683319 197.73176490601733,303.6131788855675 196.67376207875074,303.31479122813215 195.64243194688873,302.934313455158 194.64413300364635,302.47409133863715 193.6850200939767,301.9369623009573 192.77100646790538,301.3262379212493 191.90772732337743,300.64568351840046 191.10050506338834,299.8994949366117 190.35431648159957,299.0922726766226 189.67376207875074,298.22899353209465 189.0630376990427,297.31497990602327 188.52590866136285,296.35586699635365 188.06568654484198,295.35756805311127 187.68520877186785,294.3262379212493 187.38682111443254,293.2682350939827 187.17236323166807,292.19008251056323 187.0431573277362,291.09842734018986 187.0,265.0" stroke="#000" fill="#fff" stroke-width="3.0" fill-rule="evenodd" stroke-linejoin="round"/><text x="386.0" y="259" fill="#000" stroke-width="0.0" text-anchor="middle" font-family="DejaVu Sans Mono" font-size="18.0pt" font-weight="bold">number_of_positive_elements</text><polygon points="187.0,511.0 187.0,496.0 187.0,496.0 187.0431573277362,494.9015726598102 187.17236323166807,493.80991748943677 187.38682111443254,492.7317649060173 187.68520877186785,491.6737620787507 188.06568654484198,490.64243194688873 188.52590866136285,489.64413300364635 189.0630376990427,488.68502009397673 189.67376207875074,487.77100646790535 190.35431648159957,486.90772732337746 191.10050506338834,486.1005050633883 191.90772732337743,485.3543164815996 192.77100646790538,484.6737620787507 193.68502009397673,484.0630376990427 194.64413300364635,483.52590866136285 195.64243194688873,483.065686544842 196.67376207875074,482.68520877186785 197.73176490601733,482.3868211144325 198.80991748943677,482.1723632316681 199.90157265981017,482.0431573277362 201.0,482.0 571.0,482.0 571.0,482.0 572.0984273401898,482.0431573277362 573.1900825105632,482.1723632316681 574.2682350939826,482.3868211144325 575.3262379212492,482.68520877186785 576.3575680531112,483.065686544842 577.3558669963536,483.52590866136285 578.3149799060233,484.0630376990427 579.2289935320946,484.6737620787507 580.0922726766225,485.35431648159954 580.8994949366116,486.1005050633883 581.6456835184005,486.9077273233774 582.3262379212492,487.77100646790535 582.9369623009572,488.68502009397673 583.4740913386371,489.64413300364635 583.934313455158,490.64243194688873 584.3147912281321,491.6737620787507 584.6131788855674,492.7317649060173 584.8276367683319,493.80991748943677 584.9568426722637,494.90157265981014 585.0,496.0 585.0,511.0" stroke="#000" fill="#4040a0" stroke-width="3.0" fill-rule="evenodd" stroke-linejoin="round"/><polygon points="187.0,511.0 585.0,511.0 585.0,536.0 585.0,536.0 584.9568426722637,537.0984273401898 584.8276367683319,538.1900825105632 584.6131788855674,539.2682350939826 584.3147912281321,540.3262379212492 583.934313455158,541.3575680531112 583.4740913386371,542.3558669963536 582.9369623009572,543.3149799060233 582.3262379212492,544.2289935320946 581.6456835184005,545.0922726766225 580.8994949366116,545.8994949366116 580.0922726766225,546.6456835184005 579.2289935320946,547.3262379212492 578.3149799060233,547.9369623009572 577.3558669963537,548.4740913386371 576.3575680531112,548.934313455158 575.3262379212492,549.3147912281321 574.2682350939826,549.6131788855674 573.1900825105632,549.8276367683319 572.0984273401898,549.9568426722637 571.0,550.0 201.0,550.0 201.0,550.0 199.90157265981017,549.9568426722637 198.80991748943677,549.8276367683319 197.73176490601733,549.6131788855674 196.67376207875074,549.3147912281322 195.64243194688873,548.934313455158 194.64413300364635,548.4740913386371 193.6850200939767,547.9369623009572 192.77100646790538,547.3262379212492 191.90772732337743,546.6456835184005 191.10050506338834,545.8994949366116 190.35431648159957,545.0922726766225 189.67376207875074,544.2289935320946 189.0630376990427,543.3149799060233 188.52590866136285,542.3558669963537 188.06568654484198,541.3575680531112 187.68520877186785,540.3262379212492 187.38682111443254,539.2682350939826 187.17236323166807,538.1900825105632 187.0431573277362,537.0984273401898 187.0,511.0" stroke="#000" fill="#fff" stroke-width="3.0" fill-rule="evenodd" stroke-linejoin="round"/><text x="386.0" y="505" fill="#000" stroke-width="0.0" text-anchor="middle" font-family="DejaVu Sans Mono" font-size="18.0pt" font-weight="bold">number_of_negative_elements</text><polygon points="700.0,378.0 700.0,363.0 700.0,363.0 700.0431573277363,361.9015726598102 700.1723632316681,360.80991748943677 700.3868211144326,359.7317649060173 700.6852087718678,358.6737620787507 701.065686544842,357.64243194688873 701.5259086613629,356.64413300364635 702.0630376990428,355.68502009397673 702.6737620787508,354.77100646790535 703.3543164815995,353.90772732337746 704.1005050633884,353.1005050633883 704.9077273233775,352.3543164815996 705.7710064679054,351.6737620787507 706.6850200939767,351.0630376990427 707.6441330036463,350.52590866136285 708.6424319468888,350.065686544842 709.6737620787508,349.68520877186785 710.7317649060174,349.3868211144325 711.8099174894368,349.1723632316681 712.9015726598102,349.0431573277362 714.0,349.0 866.0,349.0 866.0,349.0 867.0984273401898,349.0431573277362 868.1900825105632,349.1723632316681 869.2682350939826,349.3868211144325 870.3262379212492,349.68520877186785 871.3575680531112,350.065686544842 872.3558669963536,350.52590866136285 873.3149799060233,351.0630376990427 874.2289935320946,351.6737620787507 875.0922726766225,352.35431648159954 875.8994949366116,353.1005050633883 876.6456835184005,353.9077273233774 877.3262379212492,354.77100646790535 877.9369623009572,355.68502009397673 878.4740913386371,356.64413300364635 878.934313455158,357.64243194688873 879.3147912281321,358.6737620787507 879.6131788855674,359.7317649060173 879.8276367683319,360.80991748943677 879.9568426722637,361.90157265981014 880.0,363.0 880.0,378.0" stroke="#000" fill="#ddd" stroke-width="3.0" fill-rule="evenodd" stroke-linejoin="round"/><polygon points="700.0,378.0 880.0,378.0 880.0,422.0 880.0,422.0 879.9568426722637,423.0984273401898 879.8276367683319,424.19008251056323 879.6131788855674,425.2682350939827 879.3147912281321,426.3262379212493 878.934313455158,427.35756805311127 878.4740913386371,428.35586699635365 877.9369623009572,429.31497990602327 877.3262379212492,430.22899353209465 876.6456835184005,431.09227267662254 875.8994949366116,431.8994949366117 875.0922726766225,432.64568351840046 874.2289935320946,433.3262379212493 873.3149799060233,433.9369623009573 872.3558669963537,434.47409133863715 871.3575680531112,434.934313455158 870.3262379212492,435.31479122813215 869.2682350939826,435.6131788855675 868.1900825105632,435.8276367683319 867.0984273401898,435.9568426722638 866.0,436.0 714.0,436.0 714.0,436.0 712.9015726598102,435.9568426722638 711.8099174894368,435.8276367683319 710.7317649060174,435.6131788855675 709.6737620787508,435.31479122813215 708.6424319468888,434.934313455158 707.6441330036464,434.47409133863715 706.6850200939767,433.9369623009573 705.7710064679054,433.3262379212493 704.9077273233775,432.64568351840046 704.1005050633884,431.8994949366117 703.3543164815995,431.0922726766226 702.6737620787508,430.22899353209465 702.0630376990428,429.31497990602327 701.5259086613629,428.35586699635365 701.065686544842,427.35756805311127 700.6852087718679,426.3262379212493 700.3868211144326,425.2682350939827 700.1723632316681,424.19008251056323 700.0431573277363,423.09842734018986 700.0,378.0" stroke="#000" fill="#fff" stroke-width="3.0" fill-rule="evenodd" stroke-linejoin="round"/><text x="790.0" y="372" fill="#000" stroke-width="0.0" text-anchor="middle" font-family="DejaVu Sans Mono" font-size="18.0pt" font-weight="bold">comparator</text><polygon points="175.0,278.0 187.0,284.0 175.0,290.0" fill="#000" fill-rule="evenodd" stroke-linejoin="round"/><text x="189.0" y="290" fill="#000" stroke-width="0.0" font-family="DejaVu Sans Mono" font-size="12.0pt">measurement_report: </text><text x="389.0" y="290" fill="#7f0055" stroke-width="0.0" font-family="DejaVu Sans Mono" font-size="12.0pt">list</text><polygon points="573.0,278.0 585.0,284.0 573.0,290.0" fill="#000" fill-rule="evenodd" stroke-linejoin="round"/><text x="588.0" y="280" fill="#000" stroke-width="0.0" font-family="DejaVu Sans Mono" font-size="12.0pt"></text><text x="588.0" y="280" fill="#7f0055" stroke-width="0.0" font-family="DejaVu Sans Mono" font-size="12.0pt">int</text><polygon points="175.0,524.0 187.0,530.0 175.0,536.0" fill="#000" fill-rule="evenodd" stroke-linejoin="round"/><text x="189.0" y="536" fill="#000" stroke-width="0.0" font-family="DejaVu Sans Mono" font-size="12.0pt">measurement_report: </text><text x="389.0" y="536" fill="#7f0055" stroke-width="0.0" font-family="DejaVu Sans Mono" font-size="12.0pt">list</text><polygon points="573.0,524.0 585.0,530.0 573.0,536.0" fill="#000" fill-rule="evenodd" stroke-linejoin="round"/><text x="588.0" y="526" fill="#000" stroke-width="0.0" font-family="DejaVu Sans Mono" font-size="12.0pt"></text><text x="588.0" y="526" fill="#7f0055" stroke-width="0.0" font-family="DejaVu Sans Mono" font-size="12.0pt">int</text><polygon points="688.0,391.0 700.0,397.0 688.0,403.0" fill="#000" fill-rule="evenodd" stroke-linejoin="round"/><text x="702.0" y="403" fill="#000" stroke-width="0.0" font-family="DejaVu Sans Mono" font-size="12.0pt">nb_positive: </text><text x="832.0" y="403" fill="#7f0055" stroke-width="0.0" font-family="DejaVu Sans Mono" font-size="12.0pt">int</text><polygon points="688.0,410.0 700.0,416.0 688.0,422.0" fill="#000" fill-rule="evenodd" stroke-linejoin="round"/><text x="702.0" y="422" fill="#000" stroke-width="0.0" font-family="DejaVu Sans Mono" font-size="12.0pt">nb_negative: </text><text x="832.0" y="422" fill="#7f0055" stroke-width="0.0" font-family="DejaVu Sans Mono" font-size="12.0pt">int</text><polygon points="868.0,401.0 880.0,407.0 868.0,413.0" fill="#000" fill-rule="evenodd" stroke-linejoin="round"/><text x="883.0" y="403" fill="#000" stroke-width="0.0" font-family="DejaVu Sans Mono" font-size="12.0pt"></text><text x="883.0" y="403" fill="#7f0055" stroke-width="0.0" font-family="DejaVu Sans Mono" font-size="12.0pt">bool</text><circle cx="98.0" cy="407.0" r="6.0" stroke="#000" fill="#000"/><text x="98.0" y="393" fill="#000" stroke-width="0.0" font-family="DejaVu Sans Mono" font-size="12.0pt">report: </text><text x="178.0" y="393" fill="#7f0055" stroke-width="0.0" font-family="DejaVu Sans Mono" font-size="12.0pt">list</text><circle cx="1000.0" cy="407.0" r="6.0" stroke="#000" fill="#000"/><text x="1000.0" y="393" fill="#000" stroke-width="0.0" font-family="DejaVu Sans Mono" font-size="12.0pt">trend: </text><text x="1070.0" y="393" fill="#7f0055" stroke-width="0.0" font-family="DejaVu Sans Mono" font-size="12.0pt">bool</text><path d="M187.0,284.0 Q164.0,284.0 153.0,314.5 T131.0,376.0 T98.0,407.0" stroke="#000" fill="none"/><path d="M585.0,284.0 Q613.0,284.0 627.5,312.0 T656.5,368.5 T700.0,397.0" stroke="#000" fill="none"/><path d="M187.0,530.0 Q164.0,530.0 153.0,499.0 T131.0,437.5 T98.0,407.0" stroke="#000" fill="none"/><path d="M585.0,530.0 Q613.0,530.0 627.5,501.5 T656.5,444.5 T700.0,416.0" stroke="#000" fill="none"/><path d="M880.0,407.0 Q910.0,407.0 925.0,407.0 T955.0,407.0 T1000.0,407.0" stroke="#000" fill="none"/></svg>