<?xml version="1.0" ?><!DOCTYPE svg  PUBLIC '-//W3C//DTD SVG 1.1//EN'  'http://www.w3.org/Graphics/SVG/1.1/DTD/svg11.dtd'><svg xmlns="http://www.w3.org/2000/svg" width="895.0" height="152.0" viewBox="317.0 316.0 895.0 152.0"><rect x="317.0" y="316.0" width="895.0" height="152.0" style="fill:#1E1E1E;fill-opacity:1.0" /><polygon points="658.0,369.0 658.0,354.0 658.0,354.0 658.0431573277363,352.9015726598102 658.1723632316681,351.80991748943677 658.3868211144326,350.7317649060173 658.6852087718678,349.6737620787507 659.065686544842,348.64243194688873 659.5259086613629,347.64413300364635 660.0630376990428,346.68502009397673 660.6737620787508,345.77100646790535 661.3543164815995,344.90772732337746 662.1005050633884,344.1005050633883 662.9077273233775,343.3543164815996 663.7710064679054,342.6737620787507 664.6850200939767,342.0630376990427 665.6441330036463,341.52590866136285 666.6424319468888,341.065686544842 667.6737620787508,340.68520877186785 668.7317649060174,340.3868211144325 669.8099174894368,340.1723632316681 670.9015726598102,340.0431573277362 672.0,340.0 854.0,340.0 854.0,340.0 855.0984273401898,340.0431573277362 856.1900825105632,340.1723632316681 857.2682350939826,340.3868211144325 858.3262379212492,340.68520877186785 859.3575680531112,341.065686544842 860.3558669963536,341.52590866136285 861.3149799060233,342.0630376990427 862.2289935320946,342.6737620787507 863.0922726766225,343.35431648159954 863.8994949366116,344.1005050633883 864.6456835184005,344.9077273233774 865.3262379212492,345.77100646790535 865.9369623009572,346.68502009397673 866.4740913386371,347.64413300364635 866.934313455158,348.64243194688873 867.3147912281321,349.6737620787507 867.6131788855674,350.7317649060173 867.8276367683319,351.80991748943677 867.9568426722637,352.90157265981014 868.0,354.0 868.0,369.0" stroke="#555" fill="#4444e0" stroke-width="3.0" fill-rule="evenodd" stroke-linejoin="round"/><polygon points="658.0,369.0 868.0,369.0 868.0,432.0 868.0,432.0 867.9568426722637,433.0984273401898 867.8276367683319,434.19008251056323 867.6131788855674,435.2682350939827 867.3147912281321,436.3262379212493 866.934313455158,437.35756805311127 866.4740913386371,438.35586699635365 865.9369623009572,439.31497990602327 865.3262379212492,440.22899353209465 864.6456835184005,441.09227267662254 863.8994949366116,441.8994949366117 863.0922726766225,442.64568351840046 862.2289935320946,443.3262379212493 861.3149799060233,443.9369623009573 860.3558669963537,444.47409133863715 859.3575680531112,444.934313455158 858.3262379212492,445.31479122813215 857.2682350939826,445.6131788855675 856.1900825105632,445.8276367683319 855.0984273401898,445.9568426722638 854.0,446.0 672.0,446.0 672.0,446.0 670.9015726598102,445.9568426722638 669.8099174894368,445.8276367683319 668.7317649060174,445.6131788855675 667.6737620787508,445.31479122813215 666.6424319468888,444.934313455158 665.6441330036464,444.47409133863715 664.6850200939767,443.9369623009573 663.7710064679054,443.3262379212493 662.9077273233775,442.64568351840046 662.1005050633884,441.8994949366117 661.3543164815995,441.0922726766226 660.6737620787508,440.22899353209465 660.0630376990428,439.31497990602327 659.5259086613629,438.35586699635365 659.065686544842,437.35756805311127 658.6852087718679,436.3262379212493 658.3868211144326,435.2682350939827 658.1723632316681,434.19008251056323 658.0431573277363,433.09842734018986 658.0,369.0" stroke="#555" fill="#101010" stroke-width="3.0" fill-rule="evenodd" stroke-linejoin="round"/><text x="763.0" y="363" fill="#d0d0d0" stroke-width="0.0" text-anchor="middle" font-family="DejaVu Sans Mono" font-size="18.0pt" font-weight="bold">blend</text><polygon points="856.0,401.0 868.0,407.0 856.0,413.0" fill="#fff" fill-rule="evenodd" stroke-linejoin="round"/><text x="871.0" y="403" fill="#d0d0d0" stroke-width="0.0" font-family="DejaVu Sans Mono" font-size="12.0pt"></text><text x="871.0" y="403" fill="#e00080" stroke-width="0.0" font-family="DejaVu Sans Mono" font-size="12.0pt">Cocktail</text><polygon points="646.0,382.0 658.0,388.0 646.0,394.0" fill="#fff" fill-rule="evenodd" stroke-linejoin="round"/><text x="660.0" y="394" fill="#d0d0d0" stroke-width="0.0" font-family="DejaVu Sans Mono" font-size="12.0pt">fruit_syrup: </text><text x="790.0" y="394" fill="#e00080" stroke-width="0.0" font-family="DejaVu Sans Mono" font-size="12.0pt">str</text><polygon points="646.0,401.0 658.0,407.0 646.0,413.0" fill="#fff" fill-rule="evenodd" stroke-linejoin="round"/><text x="660.0" y="413" fill="#d0d0d0" stroke-width="0.0" font-family="DejaVu Sans Mono" font-size="12.0pt">water_volume: </text><text x="800.0" y="413" fill="#e00080" stroke-width="0.0" font-family="DejaVu Sans Mono" font-size="12.0pt">float</text><polygon points="646.0,420.0 658.0,426.0 646.0,432.0" fill="#fff" fill-rule="evenodd" stroke-linejoin="round"/><text x="660.0" y="432" fill="#d0d0d0" stroke-width="0.0" font-family="DejaVu Sans Mono" font-size="12.0pt">ice: </text><text x="710.0" y="432" fill="#e00080" stroke-width="0.0" font-family="DejaVu Sans Mono" font-size="12.0pt">bool</text><circle cx="406.0" cy="355.0" r="6.0" stroke="#000" fill="#fff"/><text x="406.0" y="341" fill="#d0d0d0" stroke-width="0.0" font-family="DejaVu Sans Mono" font-size="12.0pt">syrup: </text><text x="476.0" y="341" fill="#e00080" stroke-width="0.0" font-family="DejaVu Sans Mono" font-size="12.0pt">str</text><circle cx="334.0" cy="407.0" r="6.0" stroke="#000" fill="#fff"/><text x="334.0" y="393" fill="#d0d0d0" stroke-width="0.0" font-family="DejaVu Sans Mono" font-size="12.0pt">water_liter: </text><text x="464.0" y="393" fill="#e00080" stroke-width="0.0" font-family="DejaVu Sans Mono" font-size="12.0pt">float</text><circle cx="401.0" cy="451.0" r="6.0" stroke="#000" fill="#fff"/><text x="401.0" y="437" fill="#d0d0d0" stroke-width="0.0" font-family="DejaVu Sans Mono" font-size="12.0pt">cooling: </text><text x="491.0" y="437" fill="#e00080" stroke-width="0.0" font-family="DejaVu Sans Mono" font-size="12.0pt">bool</text><circle cx="991.0" cy="407.0" r="6.0" stroke="#000" fill="#fff"/><text x="991.0" y="393" fill="#d0d0d0" stroke-width="0.0" font-family="DejaVu Sans Mono" font-size="12.0pt">my_cocktail: </text><text x="1121.0" y="393" fill="#e00080" stroke-width="0.0" font-family="DejaVu Sans Mono" font-size="12.0pt">Cocktail</text><path d="M868.0,407.0 Q898.0,407.0 913.5,407.0 T944.5,407.0 T991.0,407.0" stroke="#fff" fill="none"/><path d="M658.0,388.0 Q595.0,388.0 563.5,379.5 T500.5,363.0 T406.0,355.0" stroke="#fff" fill="none"/><path d="M658.0,407.0 Q577.0,407.0 536.5,407.0 T455.5,407.0 T334.0,407.0" stroke="#fff" fill="none"/><path d="M658.0,426.0 Q593.0,426.0 561.0,432.0 T497.0,444.5 T401.0,451.0" stroke="#fff" fill="none"/></svg>