<?xml version="1.0" ?><!DOCTYPE svg  PUBLIC '-//W3C//DTD SVG 1.1//EN'  'http://www.w3.org/Graphics/SVG/1.1/DTD/svg11.dtd'><svg xmlns="http://www.w3.org/2000/svg" width="595.0" height="316.0" viewBox="197.0 15.0 595.0 316.0"><rect x="197.0" y="15.0" width="595.0" height="316.0" style="fill:#1e1e1e;fill-opacity:1.0" /><polygon points="220.0,279.0 220.0,264.0 220.0,264.0 220.0431573277362,262.9015726598102 220.17236323166807,261.80991748943677 220.38682111443254,260.7317649060173 220.68520877186785,259.6737620787507 221.06568654484198,258.64243194688873 221.52590866136285,257.64413300364635 222.0630376990427,256.68502009397673 222.67376207875074,255.77100646790538 223.35431648159957,254.90772732337743 224.10050506338834,254.10050506338834 224.90772732337743,253.35431648159957 225.77100646790538,252.67376207875074 226.68502009397673,252.0630376990427 227.64413300364635,251.52590866136285 228.64243194688873,251.06568654484198 229.67376207875074,250.68520877186785 230.73176490601733,250.38682111443254 231.80991748943677,250.17236323166807 232.90157265981017,250.0431573277362 234.0,250.0 464.0,250.0 464.0,250.0 465.09842734018986,250.0431573277362 466.19008251056323,250.17236323166807 467.26823509398264,250.38682111443254 468.3262379212493,250.68520877186785 469.35756805311127,251.06568654484198 470.35586699635365,251.52590866136285 471.31497990602327,252.0630376990427 472.2289935320946,252.67376207875074 473.0922726766226,253.35431648159957 473.8994949366117,254.10050506338834 474.6456835184004,254.90772732337743 475.3262379212493,255.77100646790538 475.9369623009573,256.68502009397673 476.47409133863715,257.64413300364635 476.934313455158,258.64243194688873 477.31479122813215,259.6737620787507 477.6131788855675,260.7317649060173 477.8276367683319,261.80991748943677 477.9568426722638,262.90157265981014 478.0,264.0 478.0,279.0" stroke="#858585" fill="#444" stroke-width="3.0" fill-rule="evenodd" stroke-linejoin="round"/><polygon points="220.0,279.0 478.0,279.0 478.0,304.0 478.0,304.0 477.9568426722638,305.0984273401898 477.8276367683319,306.19008251056323 477.6131788855675,307.2682350939827 477.31479122813215,308.3262379212493 476.934313455158,309.35756805311127 476.47409133863715,310.35586699635365 475.9369623009573,311.31497990602327 475.3262379212493,312.22899353209465 474.64568351840046,313.09227267662254 473.8994949366117,313.8994949366117 473.0922726766226,314.64568351840046 472.22899353209465,315.3262379212493 471.31497990602327,315.9369623009573 470.35586699635365,316.47409133863715 469.35756805311127,316.934313455158 468.3262379212493,317.31479122813215 467.2682350939827,317.6131788855675 466.19008251056323,317.8276367683319 465.09842734018986,317.9568426722638 464.0,318.0 234.0,318.0 234.0,318.0 232.90157265981017,317.9568426722638 231.80991748943677,317.8276367683319 230.73176490601733,317.6131788855675 229.67376207875074,317.31479122813215 228.64243194688873,316.934313455158 227.64413300364635,316.47409133863715 226.6850200939767,315.9369623009573 225.77100646790538,315.3262379212493 224.90772732337743,314.64568351840046 224.10050506338834,313.8994949366117 223.35431648159957,313.0922726766226 222.67376207875074,312.22899353209465 222.0630376990427,311.31497990602327 221.52590866136285,310.35586699635365 221.06568654484198,309.35756805311127 220.68520877186785,308.3262379212493 220.38682111443254,307.2682350939827 220.17236323166807,306.19008251056323 220.0431573277362,305.09842734018986 220.0,279.0" stroke="#858585" fill="#252525" stroke-width="3.0" fill-rule="evenodd" stroke-linejoin="round"/><text x="349.0" y="273" fill="#d0d0d0" stroke-width="0.0" text-anchor="middle" font-family="DejaVu Sans Mono" font-size="18.0pt" font-weight="bold">create_cost_table</text><polygon points="220.0,57.0 220.0,42.0 220.0,42.0 220.0431573277362,40.90157265981017 220.17236323166807,39.80991748943677 220.38682111443254,38.731764906017325 220.68520877186785,37.67376207875074 221.06568654484198,36.64243194688874 221.52590866136285,35.644133003646346 222.0630376990427,34.68502009397672 222.67376207875074,33.77100646790538 223.35431648159957,32.90772732337743 224.10050506338834,32.10050506338834 224.90772732337743,31.35431648159957 225.77100646790538,30.673762078750737 226.68502009397673,30.063037699042706 227.64413300364635,29.525908661362852 228.64243194688873,29.065686544841988 229.67376207875074,28.68520877186785 230.73176490601733,28.38682111443253 231.80991748943677,28.172363231668072 232.90157265981017,28.04315732773621 234.0,28.0 422.0,28.0 422.0,28.0 423.09842734018986,28.04315732773621 424.19008251056323,28.172363231668072 425.26823509398264,28.386821114432525 426.3262379212493,28.68520877186785 427.35756805311127,29.065686544841988 428.35586699635365,29.52590866136285 429.31497990602327,30.063037699042702 430.2289935320946,30.673762078750734 431.0922726766226,31.354316481599568 431.8994949366117,32.10050506338833 432.6456835184004,32.90772732337742 433.3262379212493,33.77100646790537 433.9369623009573,34.68502009397672 434.47409133863715,35.644133003646346 434.934313455158,36.642431946888735 435.31479122813215,37.673762078750734 435.6131788855675,38.731764906017325 435.8276367683319,39.809917489436764 435.9568426722638,40.901572659810164 436.0,42.0 436.0,57.0" stroke="#858585" fill="#444" stroke-width="3.0" fill-rule="evenodd" stroke-linejoin="round"/><polygon points="220.0,57.0 436.0,57.0 436.0,82.0 436.0,82.0 435.9568426722638,83.09842734018983 435.8276367683319,84.19008251056323 435.6131788855675,85.26823509398268 435.31479122813215,86.32623792124926 434.934313455158,87.35756805311125 434.47409133863715,88.35586699635365 433.9369623009573,89.31497990602328 433.3262379212493,90.22899353209462 432.64568351840046,91.09227267662257 431.8994949366117,91.89949493661166 431.0922726766226,92.64568351840043 430.22899353209465,93.32623792124926 429.31497990602327,93.93696230095729 428.35586699635365,94.47409133863715 427.35756805311127,94.93431345515802 426.3262379212493,95.31479122813215 425.2682350939827,95.61317888556746 424.19008251056323,95.82763676833193 423.09842734018986,95.95684267226379 422.0,96.0 234.0,96.0 234.0,96.0 232.90157265981017,95.95684267226379 231.80991748943677,95.82763676833193 230.73176490601733,95.61317888556748 229.67376207875074,95.31479122813215 228.64243194688873,94.93431345515802 227.64413300364635,94.47409133863715 226.6850200939767,93.93696230095729 225.77100646790538,93.32623792124926 224.90772732337743,92.64568351840043 224.10050506338834,91.89949493661166 223.35431648159957,91.09227267662257 222.67376207875074,90.22899353209462 222.0630376990427,89.31497990602328 221.52590866136285,88.35586699635365 221.06568654484198,87.35756805311127 220.68520877186785,86.32623792124926 220.38682111443254,85.26823509398268 220.17236323166807,84.19008251056323 220.0431573277362,83.09842734018983 220.0,57.0" stroke="#858585" fill="#252525" stroke-width="3.0" fill-rule="evenodd" stroke-linejoin="round"/><text x="328.0" y="51" fill="#d0d0d0" stroke-width="0.0" text-anchor="middle" font-family="DejaVu Sans Mono" font-size="18.0pt" font-weight="bold">get_city_coord</text><polygon points="220.0,159.0 220.0,144.0 220.0,144.0 220.0431573277362,142.90157265981017 220.17236323166807,141.80991748943677 220.38682111443254,140.73176490601733 220.68520877186785,139.67376207875074 221.06568654484198,138.64243194688873 221.52590866136285,137.64413300364635 222.0630376990427,136.68502009397673 222.67376207875074,135.77100646790538 223.35431648159957,134.90772732337743 224.10050506338834,134.10050506338834 224.90772732337743,133.35431648159957 225.77100646790538,132.67376207875074 226.68502009397673,132.0630376990427 227.64413300364635,131.52590866136285 228.64243194688873,131.06568654484198 229.67376207875074,130.68520877186785 230.73176490601733,130.38682111443254 231.80991748943677,130.17236323166807 232.90157265981017,130.0431573277362 234.0,130.0 604.0,130.0 604.0,130.0 605.0984273401898,130.0431573277362 606.1900825105632,130.17236323166807 607.2682350939826,130.38682111443254 608.3262379212492,130.68520877186785 609.3575680531112,131.06568654484198 610.3558669963536,131.52590866136285 611.3149799060233,132.0630376990427 612.2289935320946,132.67376207875074 613.0922726766225,133.35431648159957 613.8994949366116,134.10050506338834 614.6456835184005,134.90772732337743 615.3262379212492,135.77100646790538 615.9369623009572,136.68502009397673 616.4740913386371,137.64413300364635 616.934313455158,138.64243194688873 617.3147912281321,139.67376207875074 617.6131788855674,140.73176490601733 617.8276367683319,141.80991748943677 617.9568426722637,142.90157265981017 618.0,144.0 618.0,159.0" stroke="#858585" fill="#444" stroke-width="3.0" fill-rule="evenodd" stroke-linejoin="round"/><polygon points="220.0,159.0 618.0,159.0 618.0,203.0 618.0,203.0 617.9568426722637,204.09842734018983 617.8276367683319,205.19008251056323 617.6131788855674,206.26823509398267 617.3147912281321,207.32623792124926 616.934313455158,208.35756805311127 616.4740913386371,209.35586699635365 615.9369623009572,210.3149799060233 615.3262379212492,211.22899353209462 614.6456835184005,212.09227267662257 613.8994949366116,212.89949493661166 613.0922726766225,213.64568351840043 612.2289935320946,214.32623792124926 611.3149799060233,214.9369623009573 610.3558669963537,215.47409133863715 609.3575680531112,215.93431345515802 608.3262379212492,216.31479122813215 607.2682350939826,216.61317888556746 606.1900825105632,216.82763676833193 605.0984273401898,216.9568426722638 604.0,217.0 234.0,217.0 234.0,217.0 232.90157265981017,216.9568426722638 231.80991748943677,216.82763676833193 230.73176490601733,216.61317888556746 229.67376207875074,216.31479122813215 228.64243194688873,215.93431345515802 227.64413300364635,215.47409133863715 226.6850200939767,214.9369623009573 225.77100646790538,214.32623792124926 224.90772732337743,213.64568351840043 224.10050506338834,212.89949493661166 223.35431648159957,212.09227267662257 222.67376207875074,211.22899353209462 222.0630376990427,210.3149799060233 221.52590866136285,209.35586699635365 221.06568654484198,208.35756805311127 220.68520877186785,207.32623792124926 220.38682111443254,206.26823509398267 220.17236323166807,205.19008251056323 220.0431573277362,204.09842734018983 220.0,159.0" stroke="#858585" fill="#252525" stroke-width="3.0" fill-rule="evenodd" stroke-linejoin="round"/><text x="419.0" y="153" fill="#d0d0d0" stroke-width="0.0" text-anchor="middle" font-family="DejaVu Sans Mono" font-size="18.0pt" font-weight="bold">get_distance_between_cities</text><polygon points="208.0,292.0 220.0,298.0 208.0,304.0" fill="#858585" fill-rule="evenodd" stroke-linejoin="round"/><text x="222.0" y="304" fill="#d0d0d0" stroke-width="0.0" font-family="DejaVu Sans Mono" font-size="12.0pt">cities: </text><text x="302.0" y="304" fill="#e00080" stroke-width="0.0" font-family="DejaVu Sans Mono" font-size="12.0pt">list[str]</text><polygon points="466.0,292.0 478.0,298.0 466.0,304.0" fill="#858585" fill-rule="evenodd" stroke-linejoin="round"/><text x="481.0" y="294" fill="#d0d0d0" stroke-width="0.0" font-family="DejaVu Sans Mono" font-size="12.0pt"></text><text x="481.0" y="294" fill="#e00080" stroke-width="0.0" font-family="DejaVu Sans Mono" font-size="12.0pt">dict[str,dict[str,float|None]]</text><polygon points="208.0,70.0 220.0,76.0 208.0,82.0" fill="#858585" fill-rule="evenodd" stroke-linejoin="round"/><text x="222.0" y="82" fill="#d0d0d0" stroke-width="0.0" font-family="DejaVu Sans Mono" font-size="12.0pt">city: </text><text x="282.0" y="82" fill="#e00080" stroke-width="0.0" font-family="DejaVu Sans Mono" font-size="12.0pt">str</text><polygon points="424.0,70.0 436.0,76.0 424.0,82.0" fill="#858585" fill-rule="evenodd" stroke-linejoin="round"/><text x="439.0" y="72" fill="#d0d0d0" stroke-width="0.0" font-family="DejaVu Sans Mono" font-size="12.0pt"></text><text x="439.0" y="72" fill="#e00080" stroke-width="0.0" font-family="DejaVu Sans Mono" font-size="12.0pt">tuple[float,float]|None</text><polygon points="208.0,172.0 220.0,178.0 208.0,184.0" fill="#858585" fill-rule="evenodd" stroke-linejoin="round"/><text x="222.0" y="184" fill="#d0d0d0" stroke-width="0.0" font-family="DejaVu Sans Mono" font-size="12.0pt">city1: </text><text x="292.0" y="184" fill="#e00080" stroke-width="0.0" font-family="DejaVu Sans Mono" font-size="12.0pt">str</text><polygon points="208.0,191.0 220.0,197.0 208.0,203.0" fill="#858585" fill-rule="evenodd" stroke-linejoin="round"/><text x="222.0" y="203" fill="#d0d0d0" stroke-width="0.0" font-family="DejaVu Sans Mono" font-size="12.0pt">city2: </text><text x="292.0" y="203" fill="#e00080" stroke-width="0.0" font-family="DejaVu Sans Mono" font-size="12.0pt">str</text><polygon points="606.0,182.0 618.0,188.0 606.0,194.0" fill="#858585" fill-rule="evenodd" stroke-linejoin="round"/><text x="621.0" y="184" fill="#d0d0d0" stroke-width="0.0" font-family="DejaVu Sans Mono" font-size="12.0pt"></text><text x="621.0" y="184" fill="#e00080" stroke-width="0.0" font-family="DejaVu Sans Mono" font-size="12.0pt">float|None</text></svg>