<?xml version="1.0" ?><!DOCTYPE svg  PUBLIC '-//W3C//DTD SVG 1.1//EN'  'http://www.w3.org/Graphics/SVG/1.1/DTD/svg11.dtd'><svg xmlns="http://www.w3.org/2000/svg" width="1503.0" height="230.0" viewBox="26.0 27.0 1503.0 230.0"><rect x="26.0" y="27.0" width="1503.0" height="230.0" style="fill:#1e1e1e;fill-opacity:1.0" /><polygon points="152.0,129.0 152.0,114.0 152.0,114.0 152.0431573277362,112.90157265981017 152.17236323166807,111.80991748943677 152.38682111443254,110.73176490601733 152.68520877186785,109.67376207875074 153.06568654484198,108.64243194688875 153.52590866136285,107.64413300364635 154.0630376990427,106.68502009397672 154.67376207875074,105.77100646790538 155.35431648159957,104.90772732337743 156.10050506338834,104.10050506338834 156.90772732337743,103.35431648159957 157.77100646790538,102.67376207875074 158.68502009397673,102.06303769904271 159.64413300364635,101.52590866136285 160.64243194688873,101.06568654484198 161.67376207875074,100.68520877186785 162.73176490601733,100.38682111443252 163.80991748943677,100.17236323166807 164.90157265981017,100.04315732773621 166.0,100.0 410.0,100.0 410.0,100.0 411.09842734018986,100.04315732773621 412.19008251056323,100.17236323166807 413.26823509398264,100.38682111443252 414.3262379212493,100.68520877186785 415.35756805311127,101.06568654484198 416.35586699635365,101.52590866136285 417.31497990602327,102.06303769904271 418.2289935320946,102.67376207875074 419.0922726766226,103.35431648159957 419.8994949366117,104.10050506338834 420.6456835184004,104.90772732337742 421.3262379212493,105.77100646790538 421.9369623009573,106.68502009397672 422.47409133863715,107.64413300364635 422.934313455158,108.64243194688873 423.31479122813215,109.67376207875073 423.6131788855675,110.73176490601733 423.8276367683319,111.80991748943677 423.9568426722638,112.90157265981016 424.0,114.0 424.0,129.0" stroke="#858585" fill="#444" stroke-width="3.0" fill-rule="evenodd" stroke-linejoin="round"/><polygon points="152.0,129.0 424.0,129.0 424.0,154.0 424.0,154.0 423.9568426722638,155.09842734018983 423.8276367683319,156.19008251056323 423.6131788855675,157.26823509398267 423.31479122813215,158.32623792124926 422.934313455158,159.35756805311127 422.47409133863715,160.35586699635365 421.9369623009573,161.3149799060233 421.3262379212493,162.22899353209462 420.64568351840046,163.09227267662257 419.8994949366117,163.89949493661166 419.0922726766226,164.64568351840043 418.22899353209465,165.32623792124926 417.31497990602327,165.9369623009573 416.35586699635365,166.47409133863715 415.35756805311127,166.93431345515802 414.3262379212493,167.31479122813215 413.2682350939827,167.61317888556746 412.19008251056323,167.82763676833193 411.09842734018986,167.9568426722638 410.0,168.0 166.0,168.0 166.0,168.0 164.90157265981017,167.9568426722638 163.80991748943677,167.82763676833193 162.73176490601733,167.61317888556746 161.67376207875074,167.31479122813215 160.64243194688873,166.93431345515802 159.64413300364635,166.47409133863715 158.6850200939767,165.9369623009573 157.77100646790538,165.32623792124926 156.90772732337743,164.64568351840043 156.10050506338834,163.89949493661166 155.35431648159957,163.09227267662257 154.67376207875074,162.22899353209462 154.0630376990427,161.3149799060233 153.52590866136285,160.35586699635365 153.06568654484198,159.35756805311127 152.68520877186785,158.32623792124926 152.38682111443254,157.26823509398267 152.17236323166807,156.19008251056323 152.0431573277362,155.09842734018983 152.0,129.0" stroke="#858585" fill="#252525" stroke-width="3.0" fill-rule="evenodd" stroke-linejoin="round"/><text x="288.0" y="123" fill="#d0d0d0" stroke-width="0.0" text-anchor="middle" font-family="DejaVu Sans Mono" font-size="18.0pt" font-weight="bold">intermediate_towns</text><polygon points="549.0,205.0 549.0,190.0 549.0,190.0 549.0431573277363,188.90157265981017 549.1723632316681,187.80991748943677 549.3868211144326,186.73176490601733 549.6852087718678,185.67376207875074 550.065686544842,184.64243194688873 550.5259086613629,183.64413300364635 551.0630376990428,182.68502009397673 551.6737620787508,181.77100646790538 552.3543164815995,180.90772732337743 553.1005050633884,180.10050506338834 553.9077273233775,179.35431648159957 554.7710064679054,178.67376207875074 555.6850200939767,178.0630376990427 556.6441330036463,177.52590866136285 557.6424319468888,177.06568654484198 558.6737620787508,176.68520877186785 559.7317649060174,176.38682111443254 560.8099174894368,176.17236323166807 561.9015726598102,176.0431573277362 563.0,176.0 725.0,176.0 725.0,176.0 726.0984273401898,176.0431573277362 727.1900825105632,176.17236323166807 728.2682350939826,176.38682111443254 729.3262379212492,176.68520877186785 730.3575680531112,177.06568654484198 731.3558669963536,177.52590866136285 732.3149799060233,178.0630376990427 733.2289935320946,178.67376207875074 734.0922726766225,179.35431648159957 734.8994949366116,180.10050506338834 735.6456835184005,180.90772732337743 736.3262379212492,181.77100646790538 736.9369623009572,182.68502009397673 737.4740913386371,183.64413300364635 737.934313455158,184.64243194688873 738.3147912281321,185.67376207875074 738.6131788855674,186.73176490601733 738.8276367683319,187.80991748943677 738.9568426722637,188.90157265981017 739.0,190.0 739.0,205.0" stroke="#858585" fill="#444" stroke-width="3.0" fill-rule="evenodd" stroke-linejoin="round"/><polygon points="549.0,205.0 739.0,205.0 739.0,230.0 739.0,230.0 738.9568426722637,231.09842734018983 738.8276367683319,232.19008251056323 738.6131788855674,233.26823509398267 738.3147912281321,234.32623792124926 737.934313455158,235.35756805311127 737.4740913386371,236.35586699635365 736.9369623009572,237.3149799060233 736.3262379212492,238.22899353209462 735.6456835184005,239.09227267662257 734.8994949366116,239.89949493661166 734.0922726766225,240.64568351840043 733.2289935320946,241.32623792124926 732.3149799060233,241.9369623009573 731.3558669963537,242.47409133863715 730.3575680531112,242.93431345515802 729.3262379212492,243.31479122813215 728.2682350939826,243.61317888556746 727.1900825105632,243.82763676833193 726.0984273401898,243.9568426722638 725.0,244.0 563.0,244.0 563.0,244.0 561.9015726598102,243.9568426722638 560.8099174894368,243.82763676833193 559.7317649060174,243.61317888556746 558.6737620787508,243.31479122813215 557.6424319468888,242.93431345515802 556.6441330036464,242.47409133863715 555.6850200939767,241.9369623009573 554.7710064679054,241.32623792124926 553.9077273233775,240.64568351840043 553.1005050633884,239.89949493661166 552.3543164815995,239.09227267662257 551.6737620787508,238.22899353209462 551.0630376990428,237.3149799060233 550.5259086613629,236.35586699635365 550.065686544842,235.35756805311127 549.6852087718679,234.32623792124926 549.3868211144326,233.26823509398267 549.1723632316681,232.19008251056323 549.0431573277363,231.09842734018983 549.0,205.0" stroke="#858585" fill="#252525" stroke-width="3.0" fill-rule="evenodd" stroke-linejoin="round"/><text x="644.0" y="199" fill="#d0d0d0" stroke-width="0.0" text-anchor="middle" font-family="DejaVu Sans Mono" font-size="18.0pt" font-weight="bold">permutations</text><polygon points="935.0,69.0 935.0,54.0 935.0,54.0 935.0431573277363,52.90157265981017 935.1723632316681,51.80991748943677 935.3868211144326,50.731764906017325 935.6852087718678,49.67376207875074 936.065686544842,48.64243194688874 936.5259086613629,47.644133003646346 937.0630376990428,46.68502009397672 937.6737620787508,45.77100646790538 938.3543164815995,44.90772732337743 939.1005050633884,44.10050506338834 939.9077273233775,43.35431648159957 940.7710064679054,42.67376207875074 941.6850200939767,42.06303769904271 942.6441330036463,41.52590866136285 943.6424319468888,41.06568654484199 944.6737620787508,40.68520877186785 945.7317649060174,40.38682111443253 946.8099174894368,40.17236323166807 947.9015726598102,40.04315732773621 949.0,40.0 1351.0,40.0 1351.0,40.0 1352.0984273401898,40.04315732773621 1353.1900825105631,40.17236323166807 1354.2682350939826,40.38682111443252 1355.3262379212492,40.68520877186785 1356.3575680531112,41.06568654484199 1357.3558669963536,41.52590866136285 1358.3149799060234,42.0630376990427 1359.2289935320946,42.673762078750734 1360.0922726766225,43.35431648159957 1360.8994949366117,44.10050506338833 1361.6456835184003,44.90772732337742 1362.3262379212492,45.77100646790537 1362.9369623009572,46.68502009397672 1363.4740913386372,47.644133003646346 1363.934313455158,48.642431946888735 1364.3147912281322,49.673762078750734 1364.6131788855675,50.731764906017325 1364.827636768332,51.809917489436764 1364.9568426722637,52.901572659810164 1365.0,54.0 1365.0,69.0" stroke="#858585" fill="#444" stroke-width="3.0" fill-rule="evenodd" stroke-linejoin="round"/><polygon points="935.0,69.0 1365.0,69.0 1365.0,113.0 1365.0,113.0 1364.9568426722637,114.09842734018983 1364.827636768332,115.19008251056323 1364.6131788855675,116.26823509398268 1364.3147912281322,117.32623792124926 1363.934313455158,118.35756805311125 1363.4740913386372,119.35586699635365 1362.9369623009572,120.31497990602328 1362.3262379212492,121.22899353209462 1361.6456835184003,122.09227267662257 1360.8994949366117,122.89949493661166 1360.0922726766225,123.64568351840043 1359.2289935320946,124.32623792124926 1358.3149799060234,124.93696230095729 1357.3558669963536,125.47409133863715 1356.3575680531112,125.93431345515802 1355.3262379212492,126.31479122813215 1354.2682350939826,126.61317888556746 1353.1900825105633,126.82763676833193 1352.0984273401898,126.95684267226379 1351.0,127.0 949.0,127.0 949.0,127.0 947.9015726598102,126.95684267226379 946.8099174894368,126.82763676833193 945.7317649060174,126.61317888556748 944.6737620787508,126.31479122813215 943.6424319468888,125.93431345515802 942.6441330036464,125.47409133863715 941.6850200939767,124.93696230095729 940.7710064679054,124.32623792124926 939.9077273233775,123.64568351840043 939.1005050633884,122.89949493661166 938.3543164815995,122.09227267662257 937.6737620787508,121.22899353209462 937.0630376990428,120.31497990602328 936.5259086613629,119.35586699635365 936.065686544842,118.35756805311127 935.6852087718679,117.32623792124926 935.3868211144326,116.26823509398268 935.1723632316681,115.19008251056323 935.0431573277363,114.09842734018983 935.0,69.0" stroke="#858585" fill="#252525" stroke-width="3.0" fill-rule="evenodd" stroke-linejoin="round"/><text x="1150.0" y="63" fill="#d0d0d0" stroke-width="0.0" text-anchor="middle" font-family="DejaVu Sans Mono" font-size="18.0pt" font-weight="bold">routes</text><polygon points="140.0,142.0 152.0,148.0 140.0,154.0" fill="#858585" fill-rule="evenodd" stroke-linejoin="round"/><text x="154.0" y="154" fill="#d0d0d0" stroke-width="0.0" font-family="DejaVu Sans Mono" font-size="12.0pt">cities: </text><text x="234.0" y="154" fill="#e00080" stroke-width="0.0" font-family="DejaVu Sans Mono" font-size="12.0pt">list[str]</text><polygon points="412.0,142.0 424.0,148.0 412.0,154.0" fill="#858585" fill-rule="evenodd" stroke-linejoin="round"/><text x="427.0" y="144" fill="#d0d0d0" stroke-width="0.0" font-family="DejaVu Sans Mono" font-size="12.0pt"></text><text x="427.0" y="144" fill="#e00080" stroke-width="0.0" font-family="DejaVu Sans Mono" font-size="12.0pt">list[str]</text><polygon points="537.0,218.0 549.0,224.0 537.0,230.0" fill="#858585" fill-rule="evenodd" stroke-linejoin="round"/><text x="551.0" y="230" fill="#d0d0d0" stroke-width="0.0" font-family="DejaVu Sans Mono" font-size="12.0pt">stages: </text><text x="631.0" y="230" fill="#e00080" stroke-width="0.0" font-family="DejaVu Sans Mono" font-size="12.0pt">list[str]</text><polygon points="727.0,218.0 739.0,224.0 727.0,230.0" fill="#858585" fill-rule="evenodd" stroke-linejoin="round"/><text x="742.0" y="220" fill="#d0d0d0" stroke-width="0.0" font-family="DejaVu Sans Mono" font-size="12.0pt"></text><text x="742.0" y="220" fill="#e00080" stroke-width="0.0" font-family="DejaVu Sans Mono" font-size="12.0pt">list[tuple[str,...]]</text><polygon points="923.0,82.0 935.0,88.0 923.0,94.0" fill="#858585" fill-rule="evenodd" stroke-linejoin="round"/><text x="937.0" y="94" fill="#d0d0d0" stroke-width="0.0" font-family="DejaVu Sans Mono" font-size="12.0pt">cities: </text><text x="1017.0" y="94" fill="#e00080" stroke-width="0.0" font-family="DejaVu Sans Mono" font-size="12.0pt">list[str]</text><polygon points="923.0,101.0 935.0,107.0 923.0,113.0" fill="#858585" fill-rule="evenodd" stroke-linejoin="round"/><text x="937.0" y="113" fill="#d0d0d0" stroke-width="0.0" font-family="DejaVu Sans Mono" font-size="12.0pt">permutations_stages: </text><text x="1147.0" y="113" fill="#e00080" stroke-width="0.0" font-family="DejaVu Sans Mono" font-size="12.0pt">list[tuple[str,...]]</text><polygon points="1353.0,92.0 1365.0,98.0 1353.0,104.0" fill="#858585" fill-rule="evenodd" stroke-linejoin="round"/><text x="1368.0" y="94" fill="#d0d0d0" stroke-width="0.0" font-family="DejaVu Sans Mono" font-size="12.0pt"></text><text x="1368.0" y="94" fill="#e00080" stroke-width="0.0" font-family="DejaVu Sans Mono" font-size="12.0pt">list[list[str]]</text><circle cx="478.0" cy="178.0" r="6.0" stroke="#000" fill="#858585"/><text x="478.0" y="164" fill="#d0d0d0" stroke-width="0.0" font-family="DejaVu Sans Mono" font-size="12.0pt">stages: </text><text x="558.0" y="164" fill="#e00080" stroke-width="0.0" font-family="DejaVu Sans Mono" font-size="12.0pt">list[str]</text><circle cx="816.0" cy="168.0" r="6.0" stroke="#000" fill="#858585"/><text x="816.0" y="154" fill="#d0d0d0" stroke-width="0.0" font-family="DejaVu Sans Mono" font-size="12.0pt">permutations_stages: </text><text x="1026.0" y="154" fill="#e00080" stroke-width="0.0" font-family="DejaVu Sans Mono" font-size="12.0pt">list[tuple[str,...]]</text><circle cx="43.0" cy="88.0" r="6.0" stroke="#000" fill="#858585"/><text x="43.0" y="74" fill="#d0d0d0" stroke-width="0.0" font-family="DejaVu Sans Mono" font-size="12.0pt">cities: </text><text x="123.0" y="74" fill="#e00080" stroke-width="0.0" font-family="DejaVu Sans Mono" font-size="12.0pt">list[str]</text><path d="M152.0,148.0 Q124.0,148.0 110.5,133.0 T83.5,103.0 T43.0,88.0" stroke="#858585" fill="none"/><path d="M424.0,148.0 Q437.0,148.0 444.0,155.5 T457.5,170.5 T478.0,178.0" stroke="#858585" fill="none"/><path d="M549.0,224.0 Q531.0,224.0 522.0,212.5 T504.0,189.5 T478.0,178.0" stroke="#858585" fill="none"/><path d="M739.0,224.0 Q758.0,224.0 767.5,210.0 T786.5,182.0 T816.0,168.0" stroke="#858585" fill="none"/><path d="M935.0,88.0 Q712.0,88.0 600.5,88.0 T377.5,88.0 T43.0,88.0" stroke="#858585" fill="none"/><path d="M935.0,107.0 Q905.0,107.0 890.0,122.0 T860.0,152.5 T816.0,168.0" stroke="#858585" fill="none"/></svg>