<?xml version="1.0" ?><!DOCTYPE svg  PUBLIC '-//W3C//DTD SVG 1.1//EN'  'http://www.w3.org/Graphics/SVG/1.1/DTD/svg11.dtd'><svg xmlns="http://www.w3.org/2000/svg" width="1372.0" height="267.0" viewBox="15.0 56.0 1372.0 267.0"><rect x="15.0" y="56.0" width="1372.0" height="267.0" style="fill:#1e1e1e;fill-opacity:1.0" /><polygon points="140.0,129.0 140.0,114.0 140.0,114.0 140.0431573277362,112.90157265981017 140.17236323166807,111.80991748943677 140.38682111443254,110.73176490601733 140.68520877186785,109.67376207875074 141.06568654484198,108.64243194688875 141.52590866136285,107.64413300364635 142.0630376990427,106.68502009397672 142.67376207875074,105.77100646790538 143.35431648159957,104.90772732337743 144.10050506338834,104.10050506338834 144.90772732337743,103.35431648159957 145.77100646790538,102.67376207875074 146.68502009397673,102.06303769904271 147.64413300364635,101.52590866136285 148.64243194688873,101.06568654484198 149.67376207875074,100.68520877186785 150.73176490601733,100.38682111443252 151.80991748943677,100.17236323166807 152.90157265981017,100.04315732773621 154.0,100.0 384.0,100.0 384.0,100.0 385.09842734018986,100.04315732773621 386.19008251056323,100.17236323166807 387.26823509398264,100.38682111443252 388.3262379212493,100.68520877186785 389.35756805311127,101.06568654484198 390.35586699635365,101.52590866136285 391.31497990602327,102.06303769904271 392.2289935320946,102.67376207875074 393.0922726766226,103.35431648159957 393.8994949366117,104.10050506338834 394.6456835184004,104.90772732337742 395.3262379212493,105.77100646790538 395.9369623009573,106.68502009397672 396.47409133863715,107.64413300364635 396.934313455158,108.64243194688873 397.31479122813215,109.67376207875073 397.6131788855675,110.73176490601733 397.8276367683319,111.80991748943677 397.9568426722638,112.90157265981016 398.0,114.0 398.0,129.0" stroke="#858585" fill="#444" stroke-width="3.0" fill-rule="evenodd" stroke-linejoin="round"/><polygon points="140.0,129.0 398.0,129.0 398.0,154.0 398.0,154.0 397.9568426722638,155.09842734018983 397.8276367683319,156.19008251056323 397.6131788855675,157.26823509398267 397.31479122813215,158.32623792124926 396.934313455158,159.35756805311127 396.47409133863715,160.35586699635365 395.9369623009573,161.3149799060233 395.3262379212493,162.22899353209462 394.64568351840046,163.09227267662257 393.8994949366117,163.89949493661166 393.0922726766226,164.64568351840043 392.22899353209465,165.32623792124926 391.31497990602327,165.9369623009573 390.35586699635365,166.47409133863715 389.35756805311127,166.93431345515802 388.3262379212493,167.31479122813215 387.2682350939827,167.61317888556746 386.19008251056323,167.82763676833193 385.09842734018986,167.9568426722638 384.0,168.0 154.0,168.0 154.0,168.0 152.90157265981017,167.9568426722638 151.80991748943677,167.82763676833193 150.73176490601733,167.61317888556746 149.67376207875074,167.31479122813215 148.64243194688873,166.93431345515802 147.64413300364635,166.47409133863715 146.6850200939767,165.9369623009573 145.77100646790538,165.32623792124926 144.90772732337743,164.64568351840043 144.10050506338834,163.89949493661166 143.35431648159957,163.09227267662257 142.67376207875074,162.22899353209462 142.0630376990427,161.3149799060233 141.52590866136285,160.35586699635365 141.06568654484198,159.35756805311127 140.68520877186785,158.32623792124926 140.38682111443254,157.26823509398267 140.17236323166807,156.19008251056323 140.0431573277362,155.09842734018983 140.0,129.0" stroke="#858585" fill="#252525" stroke-width="3.0" fill-rule="evenodd" stroke-linejoin="round"/><text x="269.0" y="123" fill="#d0d0d0" stroke-width="0.0" text-anchor="middle" font-family="DejaVu Sans Mono" font-size="18.0pt" font-weight="bold">create_cost_table</text><polygon points="140.0,209.0 140.0,194.0 140.0,194.0 140.0431573277362,192.90157265981017 140.17236323166807,191.80991748943677 140.38682111443254,190.73176490601733 140.68520877186785,189.67376207875074 141.06568654484198,188.64243194688873 141.52590866136285,187.64413300364635 142.0630376990427,186.68502009397673 142.67376207875074,185.77100646790538 143.35431648159957,184.90772732337743 144.10050506338834,184.10050506338834 144.90772732337743,183.35431648159957 145.77100646790538,182.67376207875074 146.68502009397673,182.0630376990427 147.64413300364635,181.52590866136285 148.64243194688873,181.06568654484198 149.67376207875074,180.68520877186785 150.73176490601733,180.38682111443254 151.80991748943677,180.17236323166807 152.90157265981017,180.0431573277362 154.0,180.0 316.0,180.0 316.0,180.0 317.09842734018986,180.0431573277362 318.19008251056323,180.17236323166807 319.26823509398264,180.38682111443254 320.3262379212493,180.68520877186785 321.35756805311127,181.06568654484198 322.35586699635365,181.52590866136285 323.31497990602327,182.0630376990427 324.2289935320946,182.67376207875074 325.0922726766226,183.35431648159957 325.8994949366117,184.10050506338834 326.6456835184004,184.90772732337743 327.3262379212493,185.77100646790538 327.9369623009573,186.68502009397673 328.47409133863715,187.64413300364635 328.934313455158,188.64243194688873 329.31479122813215,189.67376207875074 329.6131788855675,190.73176490601733 329.8276367683319,191.80991748943677 329.9568426722638,192.90157265981017 330.0,194.0 330.0,209.0" stroke="#858585" fill="#444" stroke-width="3.0" fill-rule="evenodd" stroke-linejoin="round"/><polygon points="140.0,209.0 330.0,209.0 330.0,234.0 330.0,234.0 329.9568426722638,235.09842734018983 329.8276367683319,236.19008251056323 329.6131788855675,237.26823509398267 329.31479122813215,238.32623792124926 328.934313455158,239.35756805311127 328.47409133863715,240.35586699635365 327.9369623009573,241.3149799060233 327.3262379212493,242.22899353209462 326.64568351840046,243.09227267662257 325.8994949366117,243.89949493661166 325.0922726766226,244.64568351840043 324.22899353209465,245.32623792124926 323.31497990602327,245.9369623009573 322.35586699635365,246.47409133863715 321.35756805311127,246.93431345515802 320.3262379212493,247.31479122813215 319.2682350939827,247.61317888556746 318.19008251056323,247.82763676833193 317.09842734018986,247.9568426722638 316.0,248.0 154.0,248.0 154.0,248.0 152.90157265981017,247.9568426722638 151.80991748943677,247.82763676833193 150.73176490601733,247.61317888556746 149.67376207875074,247.31479122813215 148.64243194688873,246.93431345515802 147.64413300364635,246.47409133863715 146.6850200939767,245.9369623009573 145.77100646790538,245.32623792124926 144.90772732337743,244.64568351840043 144.10050506338834,243.89949493661166 143.35431648159957,243.09227267662257 142.67376207875074,242.22899353209462 142.0630376990427,241.3149799060233 141.52590866136285,240.35586699635365 141.06568654484198,239.35756805311127 140.68520877186785,238.32623792124926 140.38682111443254,237.26823509398267 140.17236323166807,236.19008251056323 140.0431573277362,235.09842734018983 140.0,209.0" stroke="#858585" fill="#252525" stroke-width="3.0" fill-rule="evenodd" stroke-linejoin="round"/><text x="235.0" y="203" fill="#d0d0d0" stroke-width="0.0" text-anchor="middle" font-family="DejaVu Sans Mono" font-size="18.0pt" font-weight="bold">all_routes</text><polygon points="723.0,252.0 723.0,237.0 723.0,237.0 723.0431573277363,235.90157265981017 723.1723632316681,234.80991748943677 723.3868211144326,233.73176490601733 723.6852087718678,232.67376207875074 724.065686544842,231.64243194688873 724.5259086613629,230.64413300364635 725.0630376990428,229.68502009397673 725.6737620787508,228.77100646790538 726.3543164815995,227.90772732337743 727.1005050633884,227.10050506338834 727.9077273233775,226.35431648159957 728.7710064679054,225.67376207875074 729.6850200939767,225.0630376990427 730.6441330036463,224.52590866136285 731.6424319468888,224.06568654484198 732.6737620787508,223.68520877186785 733.7317649060174,223.38682111443254 734.8099174894368,223.17236323166807 735.9015726598102,223.0431573277362 737.0,223.0 1089.0,223.0 1089.0,223.0 1090.0984273401898,223.0431573277362 1091.1900825105631,223.17236323166807 1092.2682350939826,223.38682111443254 1093.3262379212492,223.68520877186785 1094.3575680531112,224.06568654484198 1095.3558669963536,224.52590866136285 1096.3149799060234,225.0630376990427 1097.2289935320946,225.67376207875074 1098.0922726766225,226.35431648159957 1098.8994949366117,227.10050506338834 1099.6456835184003,227.90772732337743 1100.3262379212492,228.77100646790538 1100.9369623009572,229.68502009397673 1101.4740913386372,230.64413300364635 1101.934313455158,231.64243194688873 1102.3147912281322,232.67376207875074 1102.6131788855675,233.73176490601733 1102.827636768332,234.80991748943677 1102.9568426722637,235.90157265981017 1103.0,237.0 1103.0,252.0" stroke="#858585" fill="#444" stroke-width="3.0" fill-rule="evenodd" stroke-linejoin="round"/><polygon points="723.0,252.0 1103.0,252.0 1103.0,296.0 1103.0,296.0 1102.9568426722637,297.0984273401898 1102.827636768332,298.19008251056323 1102.6131788855675,299.2682350939827 1102.3147912281322,300.3262379212493 1101.934313455158,301.35756805311127 1101.4740913386372,302.35586699635365 1100.9369623009572,303.31497990602327 1100.3262379212492,304.22899353209465 1099.6456835184003,305.09227267662254 1098.8994949366117,305.8994949366117 1098.0922726766225,306.64568351840046 1097.2289935320946,307.3262379212493 1096.3149799060234,307.9369623009573 1095.3558669963536,308.47409133863715 1094.3575680531112,308.934313455158 1093.3262379212492,309.31479122813215 1092.2682350939826,309.6131788855675 1091.1900825105633,309.8276367683319 1090.0984273401898,309.9568426722638 1089.0,310.0 737.0,310.0 737.0,310.0 735.9015726598102,309.9568426722638 734.8099174894368,309.8276367683319 733.7317649060174,309.6131788855675 732.6737620787508,309.31479122813215 731.6424319468888,308.934313455158 730.6441330036464,308.47409133863715 729.6850200939767,307.9369623009573 728.7710064679054,307.3262379212493 727.9077273233775,306.64568351840046 727.1005050633884,305.8994949366117 726.3543164815995,305.0922726766226 725.6737620787508,304.22899353209465 725.0630376990428,303.31497990602327 724.5259086613629,302.35586699635365 724.065686544842,301.35756805311127 723.6852087718679,300.3262379212493 723.3868211144326,299.2682350939827 723.1723632316681,298.19008251056323 723.0431573277363,297.09842734018986 723.0,252.0" stroke="#858585" fill="#252525" stroke-width="3.0" fill-rule="evenodd" stroke-linejoin="round"/><text x="913.0" y="246" fill="#d0d0d0" stroke-width="0.0" text-anchor="middle" font-family="DejaVu Sans Mono" font-size="18.0pt" font-weight="bold">search_minimum</text><polygon points="128.0,142.0 140.0,148.0 128.0,154.0" fill="#858585" fill-rule="evenodd" stroke-linejoin="round"/><text x="142.0" y="154" fill="#d0d0d0" stroke-width="0.0" font-family="DejaVu Sans Mono" font-size="12.0pt">cities: </text><text x="222.0" y="154" fill="#e00080" stroke-width="0.0" font-family="DejaVu Sans Mono" font-size="12.0pt">list[str]</text><polygon points="386.0,142.0 398.0,148.0 386.0,154.0" fill="#858585" fill-rule="evenodd" stroke-linejoin="round"/><text x="401.0" y="144" fill="#d0d0d0" stroke-width="0.0" font-family="DejaVu Sans Mono" font-size="12.0pt"></text><text x="401.0" y="144" fill="#e00080" stroke-width="0.0" font-family="DejaVu Sans Mono" font-size="12.0pt">dict[str,dict[str,float|None]]</text><polygon points="128.0,222.0 140.0,228.0 128.0,234.0" fill="#858585" fill-rule="evenodd" stroke-linejoin="round"/><text x="142.0" y="234" fill="#d0d0d0" stroke-width="0.0" font-family="DejaVu Sans Mono" font-size="12.0pt">cities: </text><text x="222.0" y="234" fill="#e00080" stroke-width="0.0" font-family="DejaVu Sans Mono" font-size="12.0pt">list[str]</text><polygon points="318.0,222.0 330.0,228.0 318.0,234.0" fill="#858585" fill-rule="evenodd" stroke-linejoin="round"/><text x="333.0" y="224" fill="#d0d0d0" stroke-width="0.0" font-family="DejaVu Sans Mono" font-size="12.0pt"></text><text x="333.0" y="224" fill="#e00080" stroke-width="0.0" font-family="DejaVu Sans Mono" font-size="12.0pt">list[list[str]]</text><polygon points="711.0,265.0 723.0,271.0 711.0,277.0" fill="#858585" fill-rule="evenodd" stroke-linejoin="round"/><text x="725.0" y="277" fill="#d0d0d0" stroke-width="0.0" font-family="DejaVu Sans Mono" font-size="12.0pt">cost: </text><text x="785.0" y="277" fill="#e00080" stroke-width="0.0" font-family="DejaVu Sans Mono" font-size="12.0pt">dict[str,dict[str,float]]</text><polygon points="711.0,284.0 723.0,290.0 711.0,296.0" fill="#858585" fill-rule="evenodd" stroke-linejoin="round"/><text x="725.0" y="296" fill="#d0d0d0" stroke-width="0.0" font-family="DejaVu Sans Mono" font-size="12.0pt">permutations_routes: </text><text x="935.0" y="296" fill="#e00080" stroke-width="0.0" font-family="DejaVu Sans Mono" font-size="12.0pt">list[list[str]]</text><polygon points="1091.0,275.0 1103.0,281.0 1091.0,287.0" fill="#858585" fill-rule="evenodd" stroke-linejoin="round"/><text x="1106.0" y="277" fill="#d0d0d0" stroke-width="0.0" font-family="DejaVu Sans Mono" font-size="12.0pt"></text><text x="1106.0" y="277" fill="#e00080" stroke-width="0.0" font-family="DejaVu Sans Mono" font-size="12.0pt">tuple[float|None,list[str]]</text><circle cx="32.0" cy="95.0" r="6.0" stroke="#000" fill="#858585"/><text x="32.0" y="81" fill="#d0d0d0" stroke-width="0.0" font-family="DejaVu Sans Mono" font-size="12.0pt">cities: </text><text x="112.0" y="81" fill="#e00080" stroke-width="0.0" font-family="DejaVu Sans Mono" font-size="12.0pt">list[str]</text><circle cx="490.0" cy="180.0" r="6.0" stroke="#000" fill="#858585"/><text x="490.0" y="166" fill="#d0d0d0" stroke-width="0.0" font-family="DejaVu Sans Mono" font-size="12.0pt">cost</text><circle cx="490.0" cy="290.0" r="6.0" stroke="#000" fill="#858585"/><text x="490.0" y="276" fill="#d0d0d0" stroke-width="0.0" font-family="DejaVu Sans Mono" font-size="12.0pt">permutations_routes</text><path d="M140.0,148.0 Q113.0,148.0 99.5,134.5 T72.5,108.0 T32.0,95.0" stroke="#858585" fill="none"/><path d="M398.0,148.0 Q421.0,148.0 432.5,156.0 T455.5,172.0 T490.0,180.0" stroke="#858585" fill="none"/><path d="M140.0,228.0 Q113.0,228.0 99.5,194.5 T72.5,128.0 T32.0,95.0" stroke="#858585" fill="none"/><path d="M330.0,228.0 Q370.0,228.0 390.0,243.5 T430.0,274.5 T490.0,290.0" stroke="#858585" fill="none"/><path d="M723.0,271.0 Q664.0,271.0 635.0,248.0 T577.0,202.5 T490.0,180.0" stroke="#858585" fill="none"/><path d="M723.0,290.0 Q664.0,290.0 635.0,290.0 T577.0,290.0 T490.0,290.0" stroke="#858585" fill="none"/></svg>