<?xml version="1.0" ?><!DOCTYPE svg  PUBLIC '-//W3C//DTD SVG 1.1//EN'  'http://www.w3.org/Graphics/SVG/1.1/DTD/svg11.dtd'><svg xmlns="http://www.w3.org/2000/svg" width="1276.0" height="265.0" viewBox="42.0 29.0 1276.0 265.0"><rect x="42.0" y="29.0" width="1276.0" height="265.0" style="fill:#1e1e1e;fill-opacity:1.0" /><polygon points="65.0,182.0 65.0,167.0 65.0,167.0 65.04315732773621,165.90157265981017 65.17236323166807,164.80991748943677 65.38682111443252,163.73176490601733 65.68520877186785,162.67376207875074 66.06568654484198,161.64243194688873 66.52590866136285,160.64413300364635 67.06303769904271,159.68502009397673 67.67376207875074,158.77100646790538 68.35431648159957,157.90772732337743 69.10050506338834,157.10050506338834 69.90772732337743,156.35431648159957 70.77100646790538,155.67376207875074 71.68502009397672,155.0630376990427 72.64413300364635,154.52590866136285 73.64243194688873,154.06568654484198 74.67376207875074,153.68520877186785 75.73176490601733,153.38682111443254 76.80991748943677,153.17236323166807 77.90157265981016,153.0431573277362 79.0,153.0 431.0,153.0 431.0,153.0 432.09842734018986,153.0431573277362 433.19008251056323,153.17236323166807 434.26823509398264,153.38682111443254 435.3262379212493,153.68520877186785 436.35756805311127,154.06568654484198 437.35586699635365,154.52590866136285 438.31497990602327,155.0630376990427 439.2289935320946,155.67376207875074 440.0922726766226,156.35431648159957 440.8994949366117,157.10050506338834 441.6456835184004,157.90772732337743 442.3262379212493,158.77100646790538 442.9369623009573,159.68502009397673 443.47409133863715,160.64413300364635 443.934313455158,161.64243194688873 444.31479122813215,162.67376207875074 444.6131788855675,163.73176490601733 444.8276367683319,164.80991748943677 444.9568426722638,165.90157265981017 445.0,167.0 445.0,182.0" stroke="#858585" fill="#444" stroke-width="3.0" fill-rule="evenodd" stroke-linejoin="round"/><polygon points="65.0,182.0 445.0,182.0 445.0,226.0 445.0,226.0 444.9568426722638,227.09842734018983 444.8276367683319,228.19008251056323 444.6131788855675,229.26823509398267 444.31479122813215,230.32623792124926 443.934313455158,231.35756805311127 443.47409133863715,232.35586699635365 442.9369623009573,233.3149799060233 442.3262379212493,234.22899353209462 441.64568351840046,235.09227267662257 440.8994949366117,235.89949493661166 440.0922726766226,236.64568351840043 439.22899353209465,237.32623792124926 438.31497990602327,237.9369623009573 437.35586699635365,238.47409133863715 436.35756805311127,238.93431345515802 435.3262379212493,239.31479122813215 434.2682350939827,239.61317888556746 433.19008251056323,239.82763676833193 432.09842734018986,239.9568426722638 431.0,240.0 79.0,240.0 79.0,240.0 77.90157265981017,239.9568426722638 76.80991748943677,239.82763676833193 75.73176490601733,239.61317888556746 74.67376207875074,239.31479122813215 73.64243194688875,238.93431345515802 72.64413300364635,238.47409133863715 71.68502009397672,237.9369623009573 70.77100646790538,237.32623792124926 69.90772732337743,236.64568351840043 69.10050506338834,235.89949493661166 68.35431648159957,235.09227267662257 67.67376207875074,234.22899353209462 67.06303769904271,233.3149799060233 66.52590866136285,232.35586699635365 66.06568654484198,231.35756805311127 65.68520877186785,230.32623792124926 65.38682111443254,229.26823509398267 65.17236323166807,228.19008251056323 65.04315732773621,227.09842734018983 65.0,182.0" stroke="#858585" fill="#252525" stroke-width="3.0" fill-rule="evenodd" stroke-linejoin="round"/><text x="255.0" y="176" fill="#d0d0d0" stroke-width="0.0" text-anchor="middle" font-family="DejaVu Sans Mono" font-size="18.0pt" font-weight="bold">search_minimum</text><polygon points="1034.0,191.0 1034.0,176.0 1034.0,176.0 1034.0431573277363,174.90157265981017 1034.172363231668,173.80991748943677 1034.3868211144325,172.73176490601733 1034.6852087718678,171.67376207875074 1035.065686544842,170.64243194688873 1035.5259086613628,169.64413300364635 1036.0630376990428,168.68502009397673 1036.6737620787508,167.77100646790538 1037.3543164815997,166.90772732337743 1038.1005050633883,166.10050506338834 1038.9077273233775,165.35431648159957 1039.7710064679054,164.67376207875074 1040.6850200939766,164.0630376990427 1041.6441330036464,163.52590866136285 1042.6424319468888,163.06568654484198 1043.6737620787508,162.68520877186785 1044.7317649060174,162.38682111443254 1045.8099174894367,162.17236323166807 1046.9015726598102,162.0431573277362 1048.0,162.0 1250.0,162.0 1250.0,162.0 1251.0984273401898,162.0431573277362 1252.1900825105631,162.17236323166807 1253.2682350939826,162.38682111443254 1254.3262379212492,162.68520877186785 1255.3575680531112,163.06568654484198 1256.3558669963536,163.52590866136285 1257.3149799060234,164.0630376990427 1258.2289935320946,164.67376207875074 1259.0922726766225,165.35431648159957 1259.8994949366117,166.10050506338834 1260.6456835184003,166.90772732337743 1261.3262379212492,167.77100646790538 1261.9369623009572,168.68502009397673 1262.4740913386372,169.64413300364635 1262.934313455158,170.64243194688873 1263.3147912281322,171.67376207875074 1263.6131788855675,172.73176490601733 1263.827636768332,173.80991748943677 1263.9568426722637,174.90157265981017 1264.0,176.0 1264.0,191.0" stroke="#858585" fill="#444" stroke-width="3.0" fill-rule="evenodd" stroke-linejoin="round"/><polygon points="1034.0,191.0 1264.0,191.0 1264.0,235.0 1264.0,235.0 1263.9568426722637,236.09842734018983 1263.827636768332,237.19008251056323 1263.6131788855675,238.26823509398267 1263.3147912281322,239.32623792124926 1262.934313455158,240.35756805311127 1262.4740913386372,241.35586699635365 1261.9369623009572,242.3149799060233 1261.3262379212492,243.22899353209462 1260.6456835184003,244.09227267662257 1259.8994949366117,244.89949493661166 1259.0922726766225,245.64568351840043 1258.2289935320946,246.32623792124926 1257.3149799060234,246.9369623009573 1256.3558669963536,247.47409133863715 1255.3575680531112,247.93431345515802 1254.3262379212492,248.31479122813215 1253.2682350939826,248.61317888556746 1252.1900825105633,248.82763676833193 1251.0984273401898,248.9568426722638 1250.0,249.0 1048.0,249.0 1048.0,249.0 1046.9015726598102,248.9568426722638 1045.8099174894367,248.82763676833193 1044.7317649060174,248.61317888556746 1043.6737620787508,248.31479122813215 1042.6424319468888,247.93431345515802 1041.6441330036464,247.47409133863715 1040.6850200939766,246.9369623009573 1039.7710064679054,246.32623792124926 1038.9077273233775,245.64568351840043 1038.1005050633883,244.89949493661166 1037.3543164815997,244.09227267662257 1036.6737620787508,243.22899353209462 1036.0630376990428,242.3149799060233 1035.5259086613628,241.35586699635365 1035.065686544842,240.35756805311127 1034.6852087718678,239.32623792124926 1034.3868211144325,238.26823509398267 1034.172363231668,237.19008251056323 1034.0431573277363,236.09842734018983 1034.0,191.0" stroke="#858585" fill="#252525" stroke-width="3.0" fill-rule="evenodd" stroke-linejoin="round"/><text x="1149.0" y="185" fill="#d0d0d0" stroke-width="0.0" text-anchor="middle" font-family="DejaVu Sans Mono" font-size="18.0pt" font-weight="bold">print_score</text><polygon points="66.0,71.0 66.0,56.0 66.0,56.0 66.04315732773621,54.90157265981017 66.17236323166807,53.80991748943677 66.38682111443252,52.731764906017325 66.68520877186785,51.67376207875074 67.06568654484198,50.64243194688874 67.52590866136285,49.644133003646346 68.06303769904271,48.68502009397672 68.67376207875074,47.77100646790538 69.35431648159957,46.90772732337743 70.10050506338834,46.10050506338834 70.90772732337743,45.35431648159957 71.77100646790538,44.67376207875074 72.68502009397672,44.06303769904271 73.64413300364635,43.52590866136285 74.64243194688873,43.06568654484199 75.67376207875074,42.68520877186785 76.73176490601733,42.38682111443253 77.80991748943677,42.17236323166807 78.90157265981016,42.04315732773621 80.0,42.0 382.0,42.0 382.0,42.0 383.09842734018986,42.04315732773621 384.19008251056323,42.17236323166807 385.26823509398264,42.38682111443252 386.3262379212493,42.68520877186785 387.35756805311127,43.06568654484199 388.35586699635365,43.52590866136285 389.31497990602327,44.0630376990427 390.2289935320946,44.673762078750734 391.0922726766226,45.35431648159957 391.8994949366117,46.10050506338833 392.6456835184004,46.90772732337742 393.3262379212493,47.77100646790537 393.9369623009573,48.68502009397672 394.47409133863715,49.644133003646346 394.934313455158,50.642431946888735 395.31479122813215,51.673762078750734 395.6131788855675,52.731764906017325 395.8276367683319,53.809917489436764 395.9568426722638,54.901572659810164 396.0,56.0 396.0,71.0" stroke="#858585" fill="#444" stroke-width="3.0" fill-rule="evenodd" stroke-linejoin="round"/><polygon points="66.0,71.0 396.0,71.0 396.0,115.0 396.0,115.0 395.9568426722638,116.09842734018983 395.8276367683319,117.19008251056323 395.6131788855675,118.26823509398268 395.31479122813215,119.32623792124926 394.934313455158,120.35756805311125 394.47409133863715,121.35586699635365 393.9369623009573,122.31497990602328 393.3262379212493,123.22899353209462 392.64568351840046,124.09227267662257 391.8994949366117,124.89949493661166 391.0922726766226,125.64568351840043 390.22899353209465,126.32623792124926 389.31497990602327,126.93696230095729 388.35586699635365,127.47409133863715 387.35756805311127,127.93431345515802 386.3262379212493,128.31479122813215 385.2682350939827,128.61317888556746 384.19008251056323,128.82763676833193 383.09842734018986,128.9568426722638 382.0,129.0 80.0,129.0 80.0,129.0 78.90157265981017,128.9568426722638 77.80991748943677,128.82763676833193 76.73176490601733,128.61317888556746 75.67376207875074,128.31479122813215 74.64243194688875,127.93431345515802 73.64413300364635,127.47409133863715 72.68502009397672,126.93696230095729 71.77100646790538,126.32623792124926 70.90772732337743,125.64568351840043 70.10050506338834,124.89949493661166 69.35431648159957,124.09227267662257 68.67376207875074,123.22899353209462 68.06303769904271,122.31497990602328 67.52590866136285,121.35586699635365 67.06568654484198,120.35756805311127 66.68520877186785,119.32623792124926 66.38682111443254,118.26823509398268 66.17236323166807,117.19008251056323 66.04315732773621,116.09842734018983 66.0,71.0" stroke="#858585" fill="#252525" stroke-width="3.0" fill-rule="evenodd" stroke-linejoin="round"/><text x="231.0" y="65" fill="#d0d0d0" stroke-width="0.0" text-anchor="middle" font-family="DejaVu Sans Mono" font-size="18.0pt" font-weight="bold">distance_route</text><polygon points="822.0,165.0 822.0,150.0 822.0,150.0 822.0431573277363,148.90157265981017 822.1723632316681,147.80991748943677 822.3868211144326,146.73176490601733 822.6852087718678,145.67376207875074 823.065686544842,144.64243194688873 823.5259086613629,143.64413300364635 824.0630376990428,142.68502009397673 824.6737620787508,141.77100646790538 825.3543164815995,140.90772732337743 826.1005050633884,140.10050506338834 826.9077273233775,139.35431648159957 827.7710064679054,138.67376207875074 828.6850200939767,138.0630376990427 829.6441330036463,137.52590866136285 830.6424319468888,137.06568654484198 831.6737620787508,136.68520877186785 832.7317649060174,136.38682111443254 833.8099174894368,136.17236323166807 834.9015726598102,136.0431573277362 836.0,136.0 954.0,136.0 954.0,136.0 955.0984273401898,136.0431573277362 956.1900825105632,136.17236323166807 957.2682350939826,136.38682111443254 958.3262379212492,136.68520877186785 959.3575680531112,137.06568654484198 960.3558669963536,137.52590866136285 961.3149799060233,138.0630376990427 962.2289935320946,138.67376207875074 963.0922726766225,139.35431648159957 963.8994949366116,140.10050506338834 964.6456835184005,140.90772732337743 965.3262379212492,141.77100646790538 965.9369623009572,142.68502009397673 966.4740913386371,143.64413300364635 966.934313455158,144.64243194688873 967.3147912281321,145.67376207875074 967.6131788855674,146.73176490601733 967.8276367683319,147.80991748943677 967.9568426722637,148.90157265981017 968.0,150.0 968.0,165.0" stroke="#858585" fill="#444" stroke-width="3.0" fill-rule="evenodd" stroke-linejoin="round"/><polygon points="822.0,165.0 968.0,165.0 968.0,190.0 968.0,190.0 967.9568426722637,191.09842734018983 967.8276367683319,192.19008251056323 967.6131788855674,193.26823509398267 967.3147912281321,194.32623792124926 966.934313455158,195.35756805311127 966.4740913386371,196.35586699635365 965.9369623009572,197.3149799060233 965.3262379212492,198.22899353209462 964.6456835184005,199.09227267662257 963.8994949366116,199.89949493661166 963.0922726766225,200.64568351840043 962.2289935320946,201.32623792124926 961.3149799060233,201.9369623009573 960.3558669963537,202.47409133863715 959.3575680531112,202.93431345515802 958.3262379212492,203.31479122813215 957.2682350939826,203.61317888556746 956.1900825105632,203.82763676833193 955.0984273401898,203.9568426722638 954.0,204.0 836.0,204.0 836.0,204.0 834.9015726598102,203.9568426722638 833.8099174894368,203.82763676833193 832.7317649060174,203.61317888556746 831.6737620787508,203.31479122813215 830.6424319468888,202.93431345515802 829.6441330036464,202.47409133863715 828.6850200939767,201.9369623009573 827.7710064679054,201.32623792124926 826.9077273233775,200.64568351840043 826.1005050633884,199.89949493661166 825.3543164815995,199.09227267662257 824.6737620787508,198.22899353209462 824.0630376990428,197.3149799060233 823.5259086613629,196.35586699635365 823.065686544842,195.35756805311127 822.6852087718679,194.32623792124926 822.3868211144326,193.26823509398267 822.1723632316681,192.19008251056323 822.0431573277363,191.09842734018983 822.0,165.0" stroke="#858585" fill="#252525" stroke-width="3.0" fill-rule="evenodd" stroke-linejoin="round"/><text x="895.0" y="159" fill="#d0d0d0" stroke-width="0.0" text-anchor="middle" font-family="DejaVu Sans Mono" font-size="18.0pt" font-weight="bold">result[0]</text><polygon points="824.0,242.0 824.0,227.0 824.0,227.0 824.0431573277363,225.90157265981017 824.1723632316681,224.80991748943677 824.3868211144326,223.73176490601733 824.6852087718678,222.67376207875074 825.065686544842,221.64243194688873 825.5259086613629,220.64413300364635 826.0630376990428,219.68502009397673 826.6737620787508,218.77100646790538 827.3543164815995,217.90772732337743 828.1005050633884,217.10050506338834 828.9077273233775,216.35431648159957 829.7710064679054,215.67376207875074 830.6850200939767,215.0630376990427 831.6441330036463,214.52590866136285 832.6424319468888,214.06568654484198 833.6737620787508,213.68520877186785 834.7317649060174,213.38682111443254 835.8099174894368,213.17236323166807 836.9015726598102,213.0431573277362 838.0,213.0 956.0,213.0 956.0,213.0 957.0984273401898,213.0431573277362 958.1900825105632,213.17236323166807 959.2682350939826,213.38682111443254 960.3262379212492,213.68520877186785 961.3575680531112,214.06568654484198 962.3558669963536,214.52590866136285 963.3149799060233,215.0630376990427 964.2289935320946,215.67376207875074 965.0922726766225,216.35431648159957 965.8994949366116,217.10050506338834 966.6456835184005,217.90772732337743 967.3262379212492,218.77100646790538 967.9369623009572,219.68502009397673 968.4740913386371,220.64413300364635 968.934313455158,221.64243194688873 969.3147912281321,222.67376207875074 969.6131788855674,223.73176490601733 969.8276367683319,224.80991748943677 969.9568426722637,225.90157265981017 970.0,227.0 970.0,242.0" stroke="#858585" fill="#444" stroke-width="3.0" fill-rule="evenodd" stroke-linejoin="round"/><polygon points="824.0,242.0 970.0,242.0 970.0,267.0 970.0,267.0 969.9568426722637,268.0984273401898 969.8276367683319,269.19008251056323 969.6131788855674,270.2682350939827 969.3147912281321,271.3262379212493 968.934313455158,272.35756805311127 968.4740913386371,273.35586699635365 967.9369623009572,274.31497990602327 967.3262379212492,275.22899353209465 966.6456835184005,276.09227267662254 965.8994949366116,276.8994949366117 965.0922726766225,277.64568351840046 964.2289935320946,278.3262379212493 963.3149799060233,278.9369623009573 962.3558669963537,279.47409133863715 961.3575680531112,279.934313455158 960.3262379212492,280.31479122813215 959.2682350939826,280.6131788855675 958.1900825105632,280.8276367683319 957.0984273401898,280.9568426722638 956.0,281.0 838.0,281.0 838.0,281.0 836.9015726598102,280.9568426722638 835.8099174894368,280.8276367683319 834.7317649060174,280.6131788855675 833.6737620787508,280.31479122813215 832.6424319468888,279.934313455158 831.6441330036464,279.47409133863715 830.6850200939767,278.9369623009573 829.7710064679054,278.3262379212493 828.9077273233775,277.64568351840046 828.1005050633884,276.8994949366117 827.3543164815995,276.0922726766226 826.6737620787508,275.22899353209465 826.0630376990428,274.31497990602327 825.5259086613629,273.35586699635365 825.065686544842,272.35756805311127 824.6852087718679,271.3262379212493 824.3868211144326,270.2682350939827 824.1723632316681,269.19008251056323 824.0431573277363,268.09842734018986 824.0,242.0" stroke="#858585" fill="#252525" stroke-width="3.0" fill-rule="evenodd" stroke-linejoin="round"/><text x="897.0" y="236" fill="#d0d0d0" stroke-width="0.0" text-anchor="middle" font-family="DejaVu Sans Mono" font-size="18.0pt" font-weight="bold">result[1]</text><polygon points="53.0,195.0 65.0,201.0 53.0,207.0" fill="#858585" fill-rule="evenodd" stroke-linejoin="round"/><text x="67.0" y="207" fill="#d0d0d0" stroke-width="0.0" font-family="DejaVu Sans Mono" font-size="12.0pt">cost: </text><text x="127.0" y="207" fill="#e00080" stroke-width="0.0" font-family="DejaVu Sans Mono" font-size="12.0pt">dict[str,dict[str,float]]</text><polygon points="53.0,214.0 65.0,220.0 53.0,226.0" fill="#858585" fill-rule="evenodd" stroke-linejoin="round"/><text x="67.0" y="226" fill="#d0d0d0" stroke-width="0.0" font-family="DejaVu Sans Mono" font-size="12.0pt">permutations_routes: </text><text x="277.0" y="226" fill="#e00080" stroke-width="0.0" font-family="DejaVu Sans Mono" font-size="12.0pt">list[list[str]]</text><polygon points="433.0,205.0 445.0,211.0 433.0,217.0" fill="#858585" fill-rule="evenodd" stroke-linejoin="round"/><text x="448.0" y="207" fill="#d0d0d0" stroke-width="0.0" font-family="DejaVu Sans Mono" font-size="12.0pt"></text><text x="448.0" y="207" fill="#e00080" stroke-width="0.0" font-family="DejaVu Sans Mono" font-size="12.0pt">tuple[float|None,list[str]]</text><polygon points="1022.0,204.0 1034.0,210.0 1022.0,216.0" fill="#858585" fill-rule="evenodd" stroke-linejoin="round"/><text x="1036.0" y="216" fill="#d0d0d0" stroke-width="0.0" font-family="DejaVu Sans Mono" font-size="12.0pt">score: </text><text x="1106.0" y="216" fill="#e00080" stroke-width="0.0" font-family="DejaVu Sans Mono" font-size="12.0pt">float|None</text><polygon points="1022.0,223.0 1034.0,229.0 1022.0,235.0" fill="#858585" fill-rule="evenodd" stroke-linejoin="round"/><text x="1036.0" y="235" fill="#d0d0d0" stroke-width="0.0" font-family="DejaVu Sans Mono" font-size="12.0pt">best_route: </text><text x="1156.0" y="235" fill="#e00080" stroke-width="0.0" font-family="DejaVu Sans Mono" font-size="12.0pt">list[str]</text><polygon points="1252.0,214.0 1264.0,220.0 1252.0,226.0" fill="#858585" fill-rule="evenodd" stroke-linejoin="round"/><text x="1267.0" y="216" fill="#d0d0d0" stroke-width="0.0" font-family="DejaVu Sans Mono" font-size="12.0pt"></text><text x="1267.0" y="216" fill="#e00080" stroke-width="0.0" font-family="DejaVu Sans Mono" font-size="12.0pt">None</text><polygon points="54.0,84.0 66.0,90.0 54.0,96.0" fill="#858585" fill-rule="evenodd" stroke-linejoin="round"/><text x="68.0" y="96" fill="#d0d0d0" stroke-width="0.0" font-family="DejaVu Sans Mono" font-size="12.0pt">cost: </text><text x="128.0" y="96" fill="#e00080" stroke-width="0.0" font-family="DejaVu Sans Mono" font-size="12.0pt">dict[str,dict[str,float]]</text><polygon points="54.0,103.0 66.0,109.0 54.0,115.0" fill="#858585" fill-rule="evenodd" stroke-linejoin="round"/><text x="68.0" y="115" fill="#d0d0d0" stroke-width="0.0" font-family="DejaVu Sans Mono" font-size="12.0pt">route: </text><text x="138.0" y="115" fill="#e00080" stroke-width="0.0" font-family="DejaVu Sans Mono" font-size="12.0pt">list[str]</text><polygon points="384.0,94.0 396.0,100.0 384.0,106.0" fill="#858585" fill-rule="evenodd" stroke-linejoin="round"/><text x="399.0" y="96" fill="#d0d0d0" stroke-width="0.0" font-family="DejaVu Sans Mono" font-size="12.0pt"></text><text x="399.0" y="96" fill="#e00080" stroke-width="0.0" font-family="DejaVu Sans Mono" font-size="12.0pt">float</text><circle cx="729.0" cy="212.0" r="6.0" stroke="#000" fill="#858585"/><text x="729.0" y="198" fill="#d0d0d0" stroke-width="0.0" font-family="DejaVu Sans Mono" font-size="12.0pt">result</text><polygon points="810.0,178.0 822.0,184.0 810.0,190.0" fill="#858585" fill-rule="evenodd" stroke-linejoin="round"/><text x="824.0" y="190" fill="#d0d0d0" stroke-width="0.0" font-family="DejaVu Sans Mono" font-size="12.0pt">result</text><polygon points="956.0,178.0 968.0,184.0 956.0,190.0" fill="#858585" fill-rule="evenodd" stroke-linejoin="round"/><text x="971.0" y="180" fill="#d0d0d0" stroke-width="0.0" font-family="DejaVu Sans Mono" font-size="12.0pt"></text><polygon points="958.0,255.0 970.0,261.0 958.0,267.0" fill="#858585" fill-rule="evenodd" stroke-linejoin="round"/><text x="973.0" y="257" fill="#d0d0d0" stroke-width="0.0" font-family="DejaVu Sans Mono" font-size="12.0pt"></text><polygon points="812.0,255.0 824.0,261.0 812.0,267.0" fill="#858585" fill-rule="evenodd" stroke-linejoin="round"/><text x="826.0" y="267" fill="#d0d0d0" stroke-width="0.0" font-family="DejaVu Sans Mono" font-size="12.0pt">result</text><path d="M445.0,211.0 Q516.0,211.0 551.5,211.0 T622.5,211.5 T729.0,212.0" stroke="#858585" fill="none"/><path d="M1034.0,210.0 Q1017.0,210.0 1009.0,203.5 T992.5,190.5 T968.0,184.0" stroke="#858585" fill="none"/><path d="M1034.0,229.0 Q1018.0,229.0 1010.0,237.0 T994.0,253.0 T970.0,261.0" stroke="#858585" fill="none"/><path d="M729.0,212.0 Q752.0,212.0 763.5,205.0 T786.5,191.0 T822.0,184.0" stroke="#858585" fill="none"/><path d="M729.0,212.0 Q752.0,212.0 764.0,224.0 T788.0,248.5 T824.0,261.0" stroke="#858585" fill="none"/></svg>