<?xml version="1.0" ?><!DOCTYPE svg  PUBLIC '-//W3C//DTD SVG 1.1//EN'  'http://www.w3.org/Graphics/SVG/1.1/DTD/svg11.dtd'><svg xmlns="http://www.w3.org/2000/svg" width="687.0" height="318.0" viewBox="47.0 111.0 687.0 318.0"><rect x="47.0" y="111.0" width="687.0" height="318.0" style="fill:#1e1e1e;fill-opacity:1.0" /><polygon points="70.0,255.0 70.0,240.0 70.0,240.0 70.04315732773621,238.90157265981017 70.17236323166807,237.80991748943677 70.38682111443252,236.73176490601733 70.68520877186785,235.67376207875074 71.06568654484198,234.64243194688873 71.52590866136285,233.64413300364635 72.06303769904271,232.68502009397673 72.67376207875074,231.77100646790538 73.35431648159957,230.90772732337743 74.10050506338834,230.10050506338834 74.90772732337743,229.35431648159957 75.77100646790538,228.67376207875074 76.68502009397672,228.0630376990427 77.64413300364635,227.52590866136285 78.64243194688873,227.06568654484198 79.67376207875074,226.68520877186785 80.73176490601733,226.38682111443254 81.80991748943677,226.17236323166807 82.90157265981016,226.0431573277362 84.0,226.0 436.0,226.0 436.0,226.0 437.09842734018986,226.0431573277362 438.19008251056323,226.17236323166807 439.26823509398264,226.38682111443254 440.3262379212493,226.68520877186785 441.35756805311127,227.06568654484198 442.35586699635365,227.52590866136285 443.31497990602327,228.0630376990427 444.2289935320946,228.67376207875074 445.0922726766226,229.35431648159957 445.8994949366117,230.10050506338834 446.6456835184004,230.90772732337743 447.3262379212493,231.77100646790538 447.9369623009573,232.68502009397673 448.47409133863715,233.64413300364635 448.934313455158,234.64243194688873 449.31479122813215,235.67376207875074 449.6131788855675,236.73176490601733 449.8276367683319,237.80991748943677 449.9568426722638,238.90157265981017 450.0,240.0 450.0,255.0" stroke="#858585" fill="#444" stroke-width="3.0" fill-rule="evenodd" stroke-linejoin="round"/><polygon points="70.0,255.0 450.0,255.0 450.0,299.0 450.0,299.0 449.9568426722638,300.0984273401898 449.8276367683319,301.19008251056323 449.6131788855675,302.2682350939827 449.31479122813215,303.3262379212493 448.934313455158,304.35756805311127 448.47409133863715,305.35586699635365 447.9369623009573,306.31497990602327 447.3262379212493,307.22899353209465 446.64568351840046,308.09227267662254 445.8994949366117,308.8994949366117 445.0922726766226,309.64568351840046 444.22899353209465,310.3262379212493 443.31497990602327,310.9369623009573 442.35586699635365,311.47409133863715 441.35756805311127,311.934313455158 440.3262379212493,312.31479122813215 439.2682350939827,312.6131788855675 438.19008251056323,312.8276367683319 437.09842734018986,312.9568426722638 436.0,313.0 84.0,313.0 84.0,313.0 82.90157265981017,312.9568426722638 81.80991748943677,312.8276367683319 80.73176490601733,312.6131788855675 79.67376207875074,312.31479122813215 78.64243194688875,311.934313455158 77.64413300364635,311.47409133863715 76.68502009397672,310.9369623009573 75.77100646790538,310.3262379212493 74.90772732337743,309.64568351840046 74.10050506338834,308.8994949366117 73.35431648159957,308.0922726766226 72.67376207875074,307.22899353209465 72.06303769904271,306.31497990602327 71.52590866136285,305.35586699635365 71.06568654484198,304.35756805311127 70.68520877186785,303.3262379212493 70.38682111443254,302.2682350939827 70.17236323166807,301.19008251056323 70.04315732773621,300.09842734018986 70.0,255.0" stroke="#858585" fill="#252525" stroke-width="3.0" fill-rule="evenodd" stroke-linejoin="round"/><text x="260.0" y="249" fill="#d0d0d0" stroke-width="0.0" text-anchor="middle" font-family="DejaVu Sans Mono" font-size="18.0pt" font-weight="bold">search_minimum</text><polygon points="70.0,358.0 70.0,343.0 70.0,343.0 70.04315732773621,341.9015726598102 70.17236323166807,340.80991748943677 70.38682111443252,339.7317649060173 70.68520877186785,338.6737620787507 71.06568654484198,337.64243194688873 71.52590866136285,336.64413300364635 72.06303769904271,335.68502009397673 72.67376207875074,334.77100646790535 73.35431648159957,333.90772732337746 74.10050506338834,333.1005050633883 74.90772732337743,332.3543164815996 75.77100646790538,331.6737620787507 76.68502009397672,331.0630376990427 77.64413300364635,330.52590866136285 78.64243194688873,330.065686544842 79.67376207875074,329.68520877186785 80.73176490601733,329.3868211144325 81.80991748943677,329.1723632316681 82.90157265981016,329.0431573277362 84.0,329.0 286.0,329.0 286.0,329.0 287.09842734018986,329.0431573277362 288.19008251056323,329.1723632316681 289.26823509398264,329.3868211144325 290.3262379212493,329.68520877186785 291.35756805311127,330.065686544842 292.35586699635365,330.52590866136285 293.31497990602327,331.0630376990427 294.2289935320946,331.6737620787507 295.0922726766226,332.35431648159954 295.8994949366117,333.1005050633883 296.6456835184004,333.9077273233774 297.3262379212493,334.77100646790535 297.9369623009573,335.68502009397673 298.47409133863715,336.64413300364635 298.934313455158,337.64243194688873 299.31479122813215,338.6737620787507 299.6131788855675,339.7317649060173 299.8276367683319,340.80991748943677 299.9568426722638,341.90157265981014 300.0,343.0 300.0,358.0" stroke="#858585" fill="#444" stroke-width="3.0" fill-rule="evenodd" stroke-linejoin="round"/><polygon points="70.0,358.0 300.0,358.0 300.0,402.0 300.0,402.0 299.9568426722638,403.0984273401898 299.8276367683319,404.19008251056323 299.6131788855675,405.2682350939827 299.31479122813215,406.3262379212493 298.934313455158,407.35756805311127 298.47409133863715,408.35586699635365 297.9369623009573,409.31497990602327 297.3262379212493,410.22899353209465 296.64568351840046,411.09227267662254 295.8994949366117,411.8994949366117 295.0922726766226,412.64568351840046 294.22899353209465,413.3262379212493 293.31497990602327,413.9369623009573 292.35586699635365,414.47409133863715 291.35756805311127,414.934313455158 290.3262379212493,415.31479122813215 289.2682350939827,415.6131788855675 288.19008251056323,415.8276367683319 287.09842734018986,415.9568426722638 286.0,416.0 84.0,416.0 84.0,416.0 82.90157265981017,415.9568426722638 81.80991748943677,415.8276367683319 80.73176490601733,415.6131788855675 79.67376207875074,415.31479122813215 78.64243194688875,414.934313455158 77.64413300364635,414.47409133863715 76.68502009397672,413.9369623009573 75.77100646790538,413.3262379212493 74.90772732337743,412.64568351840046 74.10050506338834,411.8994949366117 73.35431648159957,411.0922726766226 72.67376207875074,410.22899353209465 72.06303769904271,409.31497990602327 71.52590866136285,408.35586699635365 71.06568654484198,407.35756805311127 70.68520877186785,406.3262379212493 70.38682111443254,405.2682350939827 70.17236323166807,404.19008251056323 70.04315732773621,403.09842734018986 70.0,358.0" stroke="#858585" fill="#252525" stroke-width="3.0" fill-rule="evenodd" stroke-linejoin="round"/><text x="185.0" y="352" fill="#d0d0d0" stroke-width="0.0" text-anchor="middle" font-family="DejaVu Sans Mono" font-size="18.0pt" font-weight="bold">print_score</text><polygon points="70.0,153.0 70.0,138.0 70.0,138.0 70.04315732773621,136.90157265981017 70.17236323166807,135.80991748943677 70.38682111443252,134.73176490601733 70.68520877186785,133.67376207875074 71.06568654484198,132.64243194688873 71.52590866136285,131.64413300364635 72.06303769904271,130.68502009397673 72.67376207875074,129.77100646790538 73.35431648159957,128.90772732337743 74.10050506338834,128.10050506338834 74.90772732337743,127.35431648159957 75.77100646790538,126.67376207875074 76.68502009397672,126.06303769904271 77.64413300364635,125.52590866136285 78.64243194688873,125.06568654484198 79.67376207875074,124.68520877186785 80.73176490601733,124.38682111443252 81.80991748943677,124.17236323166807 82.90157265981016,124.04315732773621 84.0,124.0 386.0,124.0 386.0,124.0 387.09842734018986,124.04315732773621 388.19008251056323,124.17236323166807 389.26823509398264,124.38682111443252 390.3262379212493,124.68520877186785 391.35756805311127,125.06568654484198 392.35586699635365,125.52590866136285 393.31497990602327,126.06303769904271 394.2289935320946,126.67376207875074 395.0922726766226,127.35431648159957 395.8994949366117,128.10050506338834 396.6456835184004,128.90772732337743 397.3262379212493,129.77100646790538 397.9369623009573,130.68502009397673 398.47409133863715,131.64413300364635 398.934313455158,132.64243194688873 399.31479122813215,133.67376207875074 399.6131788855675,134.73176490601733 399.8276367683319,135.80991748943677 399.9568426722638,136.90157265981017 400.0,138.0 400.0,153.0" stroke="#858585" fill="#444" stroke-width="3.0" fill-rule="evenodd" stroke-linejoin="round"/><polygon points="70.0,153.0 400.0,153.0 400.0,197.0 400.0,197.0 399.9568426722638,198.09842734018983 399.8276367683319,199.19008251056323 399.6131788855675,200.26823509398267 399.31479122813215,201.32623792124926 398.934313455158,202.35756805311127 398.47409133863715,203.35586699635365 397.9369623009573,204.3149799060233 397.3262379212493,205.22899353209462 396.64568351840046,206.09227267662257 395.8994949366117,206.89949493661166 395.0922726766226,207.64568351840043 394.22899353209465,208.32623792124926 393.31497990602327,208.9369623009573 392.35586699635365,209.47409133863715 391.35756805311127,209.93431345515802 390.3262379212493,210.31479122813215 389.2682350939827,210.61317888556746 388.19008251056323,210.82763676833193 387.09842734018986,210.9568426722638 386.0,211.0 84.0,211.0 84.0,211.0 82.90157265981017,210.9568426722638 81.80991748943677,210.82763676833193 80.73176490601733,210.61317888556746 79.67376207875074,210.31479122813215 78.64243194688875,209.93431345515802 77.64413300364635,209.47409133863715 76.68502009397672,208.9369623009573 75.77100646790538,208.32623792124926 74.90772732337743,207.64568351840043 74.10050506338834,206.89949493661166 73.35431648159957,206.09227267662257 72.67376207875074,205.22899353209462 72.06303769904271,204.3149799060233 71.52590866136285,203.35586699635365 71.06568654484198,202.35756805311127 70.68520877186785,201.32623792124926 70.38682111443254,200.26823509398267 70.17236323166807,199.19008251056323 70.04315732773621,198.09842734018983 70.0,153.0" stroke="#858585" fill="#252525" stroke-width="3.0" fill-rule="evenodd" stroke-linejoin="round"/><text x="235.0" y="147" fill="#d0d0d0" stroke-width="0.0" text-anchor="middle" font-family="DejaVu Sans Mono" font-size="18.0pt" font-weight="bold">distance_route</text><polygon points="58.0,268.0 70.0,274.0 58.0,280.0" fill="#858585" fill-rule="evenodd" stroke-linejoin="round"/><text x="72.0" y="280" fill="#d0d0d0" stroke-width="0.0" font-family="DejaVu Sans Mono" font-size="12.0pt">cost: </text><text x="132.0" y="280" fill="#e00080" stroke-width="0.0" font-family="DejaVu Sans Mono" font-size="12.0pt">dict[str,dict[str,float]]</text><polygon points="58.0,287.0 70.0,293.0 58.0,299.0" fill="#858585" fill-rule="evenodd" stroke-linejoin="round"/><text x="72.0" y="299" fill="#d0d0d0" stroke-width="0.0" font-family="DejaVu Sans Mono" font-size="12.0pt">permutations_routes: </text><text x="282.0" y="299" fill="#e00080" stroke-width="0.0" font-family="DejaVu Sans Mono" font-size="12.0pt">list[list[str]]</text><polygon points="438.0,278.0 450.0,284.0 438.0,290.0" fill="#858585" fill-rule="evenodd" stroke-linejoin="round"/><text x="453.0" y="280" fill="#d0d0d0" stroke-width="0.0" font-family="DejaVu Sans Mono" font-size="12.0pt"></text><text x="453.0" y="280" fill="#e00080" stroke-width="0.0" font-family="DejaVu Sans Mono" font-size="12.0pt">tuple[float|None,list[str]]</text><polygon points="58.0,371.0 70.0,377.0 58.0,383.0" fill="#858585" fill-rule="evenodd" stroke-linejoin="round"/><text x="72.0" y="383" fill="#d0d0d0" stroke-width="0.0" font-family="DejaVu Sans Mono" font-size="12.0pt">score: </text><text x="142.0" y="383" fill="#e00080" stroke-width="0.0" font-family="DejaVu Sans Mono" font-size="12.0pt">float|None</text><polygon points="58.0,390.0 70.0,396.0 58.0,402.0" fill="#858585" fill-rule="evenodd" stroke-linejoin="round"/><text x="72.0" y="402" fill="#d0d0d0" stroke-width="0.0" font-family="DejaVu Sans Mono" font-size="12.0pt">best_route: </text><text x="192.0" y="402" fill="#e00080" stroke-width="0.0" font-family="DejaVu Sans Mono" font-size="12.0pt">list[str]</text><polygon points="288.0,381.0 300.0,387.0 288.0,393.0" fill="#858585" fill-rule="evenodd" stroke-linejoin="round"/><text x="303.0" y="383" fill="#d0d0d0" stroke-width="0.0" font-family="DejaVu Sans Mono" font-size="12.0pt"></text><text x="303.0" y="383" fill="#e00080" stroke-width="0.0" font-family="DejaVu Sans Mono" font-size="12.0pt">None</text><polygon points="58.0,166.0 70.0,172.0 58.0,178.0" fill="#858585" fill-rule="evenodd" stroke-linejoin="round"/><text x="72.0" y="178" fill="#d0d0d0" stroke-width="0.0" font-family="DejaVu Sans Mono" font-size="12.0pt">cost: </text><text x="132.0" y="178" fill="#e00080" stroke-width="0.0" font-family="DejaVu Sans Mono" font-size="12.0pt">dict[str,dict[str,float]]</text><polygon points="58.0,185.0 70.0,191.0 58.0,197.0" fill="#858585" fill-rule="evenodd" stroke-linejoin="round"/><text x="72.0" y="197" fill="#d0d0d0" stroke-width="0.0" font-family="DejaVu Sans Mono" font-size="12.0pt">route: </text><text x="142.0" y="197" fill="#e00080" stroke-width="0.0" font-family="DejaVu Sans Mono" font-size="12.0pt">list[str]</text><polygon points="388.0,176.0 400.0,182.0 388.0,188.0" fill="#858585" fill-rule="evenodd" stroke-linejoin="round"/><text x="403.0" y="178" fill="#d0d0d0" stroke-width="0.0" font-family="DejaVu Sans Mono" font-size="12.0pt"></text><text x="403.0" y="178" fill="#e00080" stroke-width="0.0" font-family="DejaVu Sans Mono" font-size="12.0pt">float</text></svg>