<?xml version="1.0" ?><!DOCTYPE svg  PUBLIC '-//W3C//DTD SVG 1.1//EN'  'http://www.w3.org/Graphics/SVG/1.1/DTD/svg11.dtd'><svg xmlns="http://www.w3.org/2000/svg" width="1418.0" height="253.0" viewBox="106.0 196.0 1418.0 253.0"><rect x="106.0" y="196.0" width="1418.0" height="253.0" style="fill:#1e1e1e;fill-opacity:1.0" /><polygon points="257.5,265.0 257.5,250.0 257.5,250.0 257.5431573277362,248.90157265981017 257.6723632316681,247.80991748943677 257.8868211144325,246.73176490601733 258.18520877186785,245.67376207875074 258.565686544842,244.64243194688873 259.02590866136285,243.64413300364635 259.5630376990427,242.68502009397673 260.1737620787507,241.77100646790538 260.85431648159954,240.90772732337743 261.6005050633883,240.10050506338834 262.4077273233774,239.35431648159957 263.27100646790535,238.67376207875074 264.18502009397673,238.0630376990427 265.14413300364635,237.52590866136285 266.14243194688873,237.06568654484198 267.1737620787507,236.68520877186785 268.2317649060173,236.38682111443254 269.30991748943677,236.17236323166807 270.40157265981014,236.0431573277362 271.5,236.0 501.5,236.0 501.5,236.0 502.59842734018986,236.0431573277362 503.69008251056323,236.17236323166807 504.76823509398264,236.38682111443254 505.8262379212493,236.68520877186785 506.85756805311127,237.06568654484198 507.85586699635365,237.52590866136285 508.81497990602327,238.0630376990427 509.7289935320946,238.67376207875074 510.5922726766226,239.35431648159957 511.3994949366117,240.10050506338834 512.1456835184005,240.90772732337743 512.8262379212492,241.77100646790538 513.4369623009572,242.68502009397673 513.9740913386371,243.64413300364635 514.434313455158,244.64243194688873 514.8147912281321,245.67376207875074 515.1131788855674,246.73176490601733 515.3276367683319,247.80991748943677 515.4568426722637,248.90157265981017 515.5,250.0 515.5,265.0" stroke="#858585" fill="#444" stroke-width="3.0" fill-rule="evenodd" stroke-linejoin="round"/><polygon points="257.5,265.0 515.5,265.0 515.5,290.0 515.5,290.0 515.4568426722637,291.0984273401898 515.3276367683319,292.19008251056323 515.1131788855674,293.2682350939827 514.8147912281321,294.3262379212493 514.434313455158,295.35756805311127 513.9740913386371,296.35586699635365 513.4369623009572,297.31497990602327 512.8262379212492,298.22899353209465 512.1456835184005,299.09227267662254 511.3994949366117,299.8994949366117 510.5922726766226,300.64568351840046 509.72899353209465,301.3262379212493 508.81497990602327,301.9369623009573 507.85586699635365,302.47409133863715 506.85756805311127,302.934313455158 505.8262379212493,303.31479122813215 504.7682350939827,303.6131788855675 503.69008251056323,303.8276367683319 502.59842734018986,303.9568426722638 501.5,304.0 271.5,304.0 271.5,304.0 270.4015726598102,303.9568426722638 269.30991748943677,303.8276367683319 268.2317649060173,303.6131788855675 267.1737620787507,303.31479122813215 266.14243194688873,302.934313455158 265.14413300364635,302.47409133863715 264.18502009397673,301.9369623009573 263.27100646790535,301.3262379212493 262.40772732337746,300.64568351840046 261.6005050633883,299.8994949366117 260.85431648159954,299.0922726766226 260.1737620787507,298.22899353209465 259.5630376990427,297.31497990602327 259.02590866136285,296.35586699635365 258.565686544842,295.35756805311127 258.18520877186785,294.3262379212493 257.8868211144325,293.2682350939827 257.6723632316681,292.19008251056323 257.5431573277362,291.09842734018986 257.5,265.0" stroke="#858585" fill="#252525" stroke-width="3.0" fill-rule="evenodd" stroke-linejoin="round"/><text x="386.5" y="259" fill="#d0d0d0" stroke-width="0.0" text-anchor="middle" font-family="DejaVu Sans Mono" font-size="18.0pt" font-weight="bold">create_cost_table</text><polygon points="291.0,349.0 291.0,334.0 291.0,334.0 291.0431573277362,332.9015726598102 291.1723632316681,331.80991748943677 291.3868211144325,330.7317649060173 291.68520877186785,329.6737620787507 292.065686544842,328.64243194688873 292.52590866136285,327.64413300364635 293.0630376990427,326.68502009397673 293.6737620787507,325.77100646790535 294.35431648159954,324.90772732337746 295.1005050633883,324.1005050633883 295.9077273233774,323.3543164815996 296.77100646790535,322.6737620787507 297.68502009397673,322.0630376990427 298.64413300364635,321.52590866136285 299.64243194688873,321.065686544842 300.6737620787507,320.68520877186785 301.7317649060173,320.3868211144325 302.80991748943677,320.1723632316681 303.90157265981014,320.0431573277362 305.0,320.0 467.0,320.0 467.0,320.0 468.09842734018986,320.0431573277362 469.19008251056323,320.1723632316681 470.26823509398264,320.3868211144325 471.3262379212493,320.68520877186785 472.35756805311127,321.065686544842 473.35586699635365,321.52590866136285 474.31497990602327,322.0630376990427 475.2289935320946,322.6737620787507 476.0922726766226,323.35431648159954 476.8994949366117,324.1005050633883 477.6456835184004,324.9077273233774 478.3262379212493,325.77100646790535 478.9369623009573,326.68502009397673 479.47409133863715,327.64413300364635 479.934313455158,328.64243194688873 480.31479122813215,329.6737620787507 480.6131788855675,330.7317649060173 480.8276367683319,331.80991748943677 480.9568426722638,332.90157265981014 481.0,334.0 481.0,349.0" stroke="#858585" fill="#444" stroke-width="3.0" fill-rule="evenodd" stroke-linejoin="round"/><polygon points="291.0,349.0 481.0,349.0 481.0,374.0 481.0,374.0 480.9568426722638,375.0984273401898 480.8276367683319,376.19008251056323 480.6131788855675,377.2682350939827 480.31479122813215,378.3262379212493 479.934313455158,379.35756805311127 479.47409133863715,380.35586699635365 478.9369623009573,381.31497990602327 478.3262379212493,382.22899353209465 477.64568351840046,383.09227267662254 476.8994949366117,383.8994949366117 476.0922726766226,384.64568351840046 475.22899353209465,385.3262379212493 474.31497990602327,385.9369623009573 473.35586699635365,386.47409133863715 472.35756805311127,386.934313455158 471.3262379212493,387.31479122813215 470.2682350939827,387.6131788855675 469.19008251056323,387.8276367683319 468.09842734018986,387.9568426722638 467.0,388.0 305.0,388.0 305.0,388.0 303.9015726598102,387.9568426722638 302.80991748943677,387.8276367683319 301.7317649060173,387.6131788855675 300.6737620787507,387.31479122813215 299.64243194688873,386.934313455158 298.64413300364635,386.47409133863715 297.68502009397673,385.9369623009573 296.77100646790535,385.3262379212493 295.90772732337746,384.64568351840046 295.1005050633883,383.8994949366117 294.35431648159954,383.0922726766226 293.6737620787507,382.22899353209465 293.0630376990427,381.31497990602327 292.52590866136285,380.35586699635365 292.065686544842,379.35756805311127 291.68520877186785,378.3262379212493 291.3868211144325,377.2682350939827 291.1723632316681,376.19008251056323 291.0431573277362,375.09842734018986 291.0,349.0" stroke="#858585" fill="#252525" stroke-width="3.0" fill-rule="evenodd" stroke-linejoin="round"/><text x="386.0" y="343" fill="#d0d0d0" stroke-width="0.0" text-anchor="middle" font-family="DejaVu Sans Mono" font-size="18.0pt" font-weight="bold">all_routes</text><polygon points="860.0,378.0 860.0,363.0 860.0,363.0 860.0431573277363,361.9015726598102 860.1723632316681,360.80991748943677 860.3868211144326,359.7317649060173 860.6852087718678,358.6737620787507 861.065686544842,357.64243194688873 861.5259086613629,356.64413300364635 862.0630376990428,355.68502009397673 862.6737620787508,354.77100646790535 863.3543164815995,353.90772732337746 864.1005050633884,353.1005050633883 864.9077273233775,352.3543164815996 865.7710064679054,351.6737620787507 866.6850200939767,351.0630376990427 867.6441330036463,350.52590866136285 868.6424319468888,350.065686544842 869.6737620787508,349.68520877186785 870.7317649060174,349.3868211144325 871.8099174894368,349.1723632316681 872.9015726598102,349.0431573277362 874.0,349.0 1226.0,349.0 1226.0,349.0 1227.0984273401898,349.0431573277362 1228.1900825105631,349.1723632316681 1229.2682350939826,349.3868211144325 1230.3262379212492,349.68520877186785 1231.3575680531112,350.065686544842 1232.3558669963536,350.52590866136285 1233.3149799060234,351.0630376990427 1234.2289935320946,351.6737620787507 1235.0922726766225,352.35431648159954 1235.8994949366117,353.1005050633883 1236.6456835184003,353.9077273233774 1237.3262379212492,354.77100646790535 1237.9369623009572,355.68502009397673 1238.4740913386372,356.64413300364635 1238.934313455158,357.64243194688873 1239.3147912281322,358.6737620787507 1239.6131788855675,359.7317649060173 1239.827636768332,360.80991748943677 1239.9568426722637,361.90157265981014 1240.0,363.0 1240.0,378.0" stroke="#858585" fill="#444" stroke-width="3.0" fill-rule="evenodd" stroke-linejoin="round"/><polygon points="860.0,378.0 1240.0,378.0 1240.0,422.0 1240.0,422.0 1239.9568426722637,423.0984273401898 1239.827636768332,424.19008251056323 1239.6131788855675,425.2682350939827 1239.3147912281322,426.3262379212493 1238.934313455158,427.35756805311127 1238.4740913386372,428.35586699635365 1237.9369623009572,429.31497990602327 1237.3262379212492,430.22899353209465 1236.6456835184003,431.09227267662254 1235.8994949366117,431.8994949366117 1235.0922726766225,432.64568351840046 1234.2289935320946,433.3262379212493 1233.3149799060234,433.9369623009573 1232.3558669963536,434.47409133863715 1231.3575680531112,434.934313455158 1230.3262379212492,435.31479122813215 1229.2682350939826,435.6131788855675 1228.1900825105633,435.8276367683319 1227.0984273401898,435.9568426722638 1226.0,436.0 874.0,436.0 874.0,436.0 872.9015726598102,435.9568426722638 871.8099174894368,435.8276367683319 870.7317649060174,435.6131788855675 869.6737620787508,435.31479122813215 868.6424319468888,434.934313455158 867.6441330036464,434.47409133863715 866.6850200939767,433.9369623009573 865.7710064679054,433.3262379212493 864.9077273233775,432.64568351840046 864.1005050633884,431.8994949366117 863.3543164815995,431.0922726766226 862.6737620787508,430.22899353209465 862.0630376990428,429.31497990602327 861.5259086613629,428.35586699635365 861.065686544842,427.35756805311127 860.6852087718679,426.3262379212493 860.3868211144326,425.2682350939827 860.1723632316681,424.19008251056323 860.0431573277363,423.09842734018986 860.0,378.0" stroke="#858585" fill="#252525" stroke-width="3.0" fill-rule="evenodd" stroke-linejoin="round"/><text x="1050.0" y="372" fill="#d0d0d0" stroke-width="0.0" text-anchor="middle" font-family="DejaVu Sans Mono" font-size="18.0pt" font-weight="bold">search_minimum</text><polygon points="245.5,278.0 257.5,284.0 245.5,290.0" fill="#858585" fill-rule="evenodd" stroke-linejoin="round"/><text x="259.5" y="290" fill="#d0d0d0" stroke-width="0.0" font-family="DejaVu Sans Mono" font-size="12.0pt">cities: </text><text x="339.5" y="290" fill="#e00080" stroke-width="0.0" font-family="DejaVu Sans Mono" font-size="12.0pt">list[str]</text><polygon points="503.5,278.0 515.5,284.0 503.5,290.0" fill="#858585" fill-rule="evenodd" stroke-linejoin="round"/><text x="518.5" y="280" fill="#d0d0d0" stroke-width="0.0" font-family="DejaVu Sans Mono" font-size="12.0pt"></text><text x="518.5" y="280" fill="#e00080" stroke-width="0.0" font-family="DejaVu Sans Mono" font-size="12.0pt">dict[str,dict[str,float|None]]</text><polygon points="279.0,362.0 291.0,368.0 279.0,374.0" fill="#858585" fill-rule="evenodd" stroke-linejoin="round"/><text x="293.0" y="374" fill="#d0d0d0" stroke-width="0.0" font-family="DejaVu Sans Mono" font-size="12.0pt">cities: </text><text x="373.0" y="374" fill="#e00080" stroke-width="0.0" font-family="DejaVu Sans Mono" font-size="12.0pt">list[str]</text><polygon points="469.0,362.0 481.0,368.0 469.0,374.0" fill="#858585" fill-rule="evenodd" stroke-linejoin="round"/><text x="484.0" y="364" fill="#d0d0d0" stroke-width="0.0" font-family="DejaVu Sans Mono" font-size="12.0pt"></text><text x="484.0" y="364" fill="#e00080" stroke-width="0.0" font-family="DejaVu Sans Mono" font-size="12.0pt">list[list[str]]</text><polygon points="848.0,391.0 860.0,397.0 848.0,403.0" fill="#858585" fill-rule="evenodd" stroke-linejoin="round"/><text x="862.0" y="403" fill="#d0d0d0" stroke-width="0.0" font-family="DejaVu Sans Mono" font-size="12.0pt">cost: </text><text x="922.0" y="403" fill="#e00080" stroke-width="0.0" font-family="DejaVu Sans Mono" font-size="12.0pt">dict[str,dict[str,float]]</text><polygon points="848.0,410.0 860.0,416.0 848.0,422.0" fill="#858585" fill-rule="evenodd" stroke-linejoin="round"/><text x="862.0" y="422" fill="#d0d0d0" stroke-width="0.0" font-family="DejaVu Sans Mono" font-size="12.0pt">permutations_routes: </text><text x="1072.0" y="422" fill="#e00080" stroke-width="0.0" font-family="DejaVu Sans Mono" font-size="12.0pt">list[list[str]]</text><polygon points="1228.0,401.0 1240.0,407.0 1228.0,413.0" fill="#858585" fill-rule="evenodd" stroke-linejoin="round"/><text x="1243.0" y="403" fill="#d0d0d0" stroke-width="0.0" font-family="DejaVu Sans Mono" font-size="12.0pt"></text><text x="1243.0" y="403" fill="#e00080" stroke-width="0.0" font-family="DejaVu Sans Mono" font-size="12.0pt">tuple[float|None,list[str]]</text><circle cx="620.0" cy="320.0" r="6.0" stroke="#000" fill="#858585"/><text x="620.0" y="306" fill="#d0d0d0" stroke-width="0.0" font-family="DejaVu Sans Mono" font-size="12.0pt">cost</text><circle cx="620.0" cy="416.0" r="6.0" stroke="#000" fill="#858585"/><text x="620.0" y="402" fill="#d0d0d0" stroke-width="0.0" font-family="DejaVu Sans Mono" font-size="12.0pt">permutations_routes</text><circle cx="123.0" cy="235.0" r="6.0" stroke="#000" fill="#858585"/><text x="123.0" y="221" fill="#d0d0d0" stroke-width="0.0" font-family="DejaVu Sans Mono" font-size="12.0pt">cities: </text><text x="203.0" y="221" fill="#e00080" stroke-width="0.0" font-family="DejaVu Sans Mono" font-size="12.0pt">list[str]</text><path d="M257.5,284.0 Q223.0,284.0 206.5,271.5 T173.0,247.0 T123.0,235.0" stroke="#858585" fill="none"/><path d="M515.5,284.0 Q541.0,284.0 554.0,293.0 T580.0,311.0 T620.0,320.0" stroke="#858585" fill="none"/><path d="M291.0,368.0 Q249.0,368.0 228.0,334.5 T186.0,268.0 T123.0,235.0" stroke="#858585" fill="none"/><path d="M481.0,368.0 Q515.0,368.0 532.5,380.0 T567.5,404.0 T620.0,416.0" stroke="#858585" fill="none"/><path d="M860.0,397.0 Q800.0,397.0 770.0,377.5 T710.0,339.0 T620.0,320.0" stroke="#858585" fill="none"/><path d="M860.0,416.0 Q800.0,416.0 770.0,416.0 T710.0,416.0 T620.0,416.0" stroke="#858585" fill="none"/></svg>