<?xml version="1.0" ?><!DOCTYPE svg  PUBLIC '-//W3C//DTD SVG 1.1//EN'  'http://www.w3.org/Graphics/SVG/1.1/DTD/svg11.dtd'><svg xmlns="http://www.w3.org/2000/svg" width="441.0" height="222.0" viewBox="238.0 51.0 441.0 222.0"><rect x="238.0" y="51.0" width="441.0" height="222.0" style="fill:#1e1e1e;fill-opacity:1.0" /><polygon points="405.0,134.0 405.0,119.0 405.0,119.0 405.0431573277362,117.90157265981017 405.1723632316681,116.80991748943677 405.3868211144325,115.73176490601733 405.68520877186785,114.67376207875074 406.065686544842,113.64243194688875 406.52590866136285,112.64413300364635 407.0630376990427,111.68502009397672 407.6737620787507,110.77100646790538 408.35431648159954,109.90772732337743 409.1005050633883,109.10050506338834 409.9077273233774,108.35431648159957 410.77100646790535,107.67376207875074 411.68502009397673,107.06303769904271 412.64413300364635,106.52590866136285 413.64243194688873,106.06568654484198 414.6737620787507,105.68520877186785 415.7317649060173,105.38682111443252 416.80991748943677,105.17236323166807 417.90157265981014,105.04315732773621 419.0,105.0 453.0,105.0 453.0,105.0 454.09842734018986,105.04315732773621 455.19008251056323,105.17236323166807 456.26823509398264,105.38682111443252 457.3262379212493,105.68520877186785 458.35756805311127,106.06568654484198 459.35586699635365,106.52590866136285 460.31497990602327,107.06303769904271 461.2289935320946,107.67376207875074 462.0922726766226,108.35431648159957 462.8994949366117,109.10050506338834 463.6456835184004,109.90772732337742 464.3262379212493,110.77100646790538 464.9369623009573,111.68502009397672 465.47409133863715,112.64413300364635 465.934313455158,113.64243194688873 466.31479122813215,114.67376207875073 466.6131788855675,115.73176490601733 466.8276367683319,116.80991748943677 466.9568426722638,117.90157265981016 467.0,119.0 467.0,134.0" stroke="#858585" fill="#104010" stroke-width="3.0" fill-rule="evenodd" stroke-linejoin="round"/><polygon points="405.0,134.0 467.0,134.0 467.0,178.0 467.0,178.0 466.9568426722638,179.09842734018983 466.8276367683319,180.19008251056323 466.6131788855675,181.26823509398267 466.31479122813215,182.32623792124926 465.934313455158,183.35756805311127 465.47409133863715,184.35586699635365 464.9369623009573,185.3149799060233 464.3262379212493,186.22899353209462 463.64568351840046,187.09227267662257 462.8994949366117,187.89949493661166 462.0922726766226,188.64568351840043 461.22899353209465,189.32623792124926 460.31497990602327,189.9369623009573 459.35586699635365,190.47409133863715 458.35756805311127,190.93431345515802 457.3262379212493,191.31479122813215 456.2682350939827,191.61317888556746 455.19008251056323,191.82763676833193 454.09842734018986,191.9568426722638 453.0,192.0 419.0,192.0 419.0,192.0 417.9015726598102,191.9568426722638 416.80991748943677,191.82763676833193 415.7317649060173,191.61317888556746 414.6737620787507,191.31479122813215 413.64243194688873,190.93431345515802 412.64413300364635,190.47409133863715 411.68502009397673,189.9369623009573 410.77100646790535,189.32623792124926 409.90772732337746,188.64568351840043 409.1005050633883,187.89949493661166 408.35431648159954,187.09227267662257 407.6737620787507,186.22899353209462 407.0630376990427,185.3149799060233 406.52590866136285,184.35586699635365 406.065686544842,183.35756805311127 405.68520877186785,182.32623792124926 405.3868211144325,181.26823509398267 405.1723632316681,180.19008251056323 405.0431573277362,179.09842734018983 405.0,134.0" stroke="#858585" fill="#252525" stroke-width="3.0" fill-rule="evenodd" stroke-linejoin="round"/><text x="436.0" y="128" fill="#d0d0d0" stroke-width="0.0" text-anchor="middle" font-family="DejaVu Sans Mono" font-size="18.0pt" font-weight="bold">xor</text><polygon points="393.0,147.0 405.0,153.0 393.0,159.0" fill="#858585" fill-rule="evenodd" stroke-linejoin="round"/><text x="407.0" y="159" fill="#d0d0d0" stroke-width="0.0" font-family="DejaVu Sans Mono" font-size="12.0pt">a</text><polygon points="393.0,166.0 405.0,172.0 393.0,178.0" fill="#858585" fill-rule="evenodd" stroke-linejoin="round"/><text x="407.0" y="178" fill="#d0d0d0" stroke-width="0.0" font-family="DejaVu Sans Mono" font-size="12.0pt">b</text><polygon points="455.0,157.0 467.0,163.0 455.0,169.0" fill="#858585" fill-rule="evenodd" stroke-linejoin="round"/><text x="470.0" y="159" fill="#d0d0d0" stroke-width="0.0" font-family="DejaVu Sans Mono" font-size="12.0pt"></text><circle cx="255.0" cy="90.0" r="6.0" stroke="#000" fill="#858585"/><text x="255.0" y="76" fill="#d0d0d0" stroke-width="0.0" font-family="DejaVu Sans Mono" font-size="12.0pt">plain_text</text><circle cx="255.0" cy="256.0" r="6.0" stroke="#000" fill="#858585"/><text x="255.0" y="242" fill="#d0d0d0" stroke-width="0.0" font-family="DejaVu Sans Mono" font-size="12.0pt">key</text><circle cx="558.0" cy="163.0" r="6.0" stroke="#000" fill="#858585"/><text x="558.0" y="149" fill="#d0d0d0" stroke-width="0.0" font-family="DejaVu Sans Mono" font-size="12.0pt">cipher_Text</text><path d="M405.0,153.0 Q367.0,153.0 348.5,137.0 T311.0,105.5 T255.0,90.0" stroke="#858585" fill="none"/><path d="M405.0,172.0 Q367.0,172.0 348.5,193.0 T311.0,235.0 T255.0,256.0" stroke="#858585" fill="none"/><path d="M467.0,163.0 Q489.0,163.0 500.5,163.0 T523.5,163.0 T558.0,163.0" stroke="#858585" fill="none"/></svg>